<svg id="Layer_1" data-name="Layer 1" xmlns="http://www.w3.org/2000/svg" viewBox="0 0 3200 900"><title>begltest</title><path d="M1572.25,610.08c104.5,9.19,209.51,6.3,314.09.13,104.89-6.19,209.59-15.58,314.63-19.07,52.37-1.74,104.83-2,157.19.33,53.2,2.38,106.12,8.4,159.24,11.84,51.41,3.33,103.23,3.94,154.25-4.2,52.22-8.34,103-23.61,156-26.45,52.9-2.83,105.8,2.8,158.42,7.58L3146,594.74l40,3.63c1.92.17,1.91-2.83,0-3l-159.85-14.5c-52.81-4.8-105.78-11-158.84-11.88a499.34,499.34,0,0,0-76,4.11c-25.63,3.52-50.87,9.26-76.16,14.63a656.91,656.91,0,0,1-158.21,14.52c-52.73-1.63-105.18-7.66-157.78-11.4-52.83-3.76-105.81-4.67-158.76-3.72-105.06,1.87-209.81,10.78-314.62,17.62-104.54,6.83-209.51,11.65-314.21,5.26q-19.62-1.18-39.2-2.93c-1.92-.17-1.91,2.83,0,3Z"/><path d="M1994.31,640.4a312.89,312.89,0,0,0,8.33-92.68c-.84-13.59-5.32-30.82,6.61-41,9.32-7.92,23.18-8.83,34.85-9.2,66.4-2.11,132.82-3.44,199.23-5.15l200.55-5.18,99.78-2.58c32.55-.84,65.13-1.94,97.7-1.15,16.18.38,32.35,1.25,48.46,2.88,8.58.87,17.34,1.65,25.8,3.37,8.72,1.77,11.78,7.47,13.55,15.59,7.09,32.43,13.66,65,20.49,97.48l5.13,24.44c.4,1.89,3.29,1.09,2.9-.8q-10.68-50.84-21.37-101.67c-1.65-7.88-2.94-16-5.08-23.73-1.39-5.07-3.78-9.69-8.59-12.2-5.69-3-13.08-3.12-19.33-3.93q-12.51-1.62-25.1-2.59c-33.95-2.7-68-2.32-102.06-1.51-34.45.81-68.89,1.76-103.34,2.65l-207.54,5.36-208.54,5.39c-20.09.52-53.22-.7-58,25.28-1.25,6.83-.25,13.81.34,20.65.7,8.19,1.08,16.42,1.13,24.64a306.67,306.67,0,0,1-3.89,50.64c-1.31,8.12-3,16.18-4.9,24.17-.45,1.88,2.44,2.68,2.89.8Z"/><path d="M2005.93,569.27c48.77-1.06,97.55.92,146.31-.83,47.61-1.71,95.08-6,142.46-10.88,95.78-9.83,191.32-21,287.77-19.54,55,.83,109.85,4.53,164.66,8.55l-1.45-1.9-7.3,42.5c-.73,4.27-1.2,5.22-5.14,6.6-3.17,1.12-6.35,2.19-9.55,3.24q-10,3.27-20.13,6.11A585.88,585.88,0,0,1,2626.74,619c-53.39,7.51-107.48,8.71-161.33,8-55.67-.76-111.32-3.09-167-4.89l-170.73-5.51c-31.3-1-62.72-1.51-93.85-5.23-8-1-16-2.15-24-3.63-3.73-.7-7.46-1.46-11.16-2.29-1.28-.28-4-.39-4.9-1.52-.59-.72-.81-4.16-.86-4.78-1-12.69,7.2-25.24,19.28-29.21,1.83-.6,1-3.5-.79-2.9a31.2,31.2,0,0,0-18.76,17.2,32.55,32.55,0,0,0-2.74,11c-.18,2.78-.36,9.52,1.91,11.57,1.52,1.36,5.93,1.54,7.92,2q4.63,1,9.3,1.87,9.53,1.77,19.15,3c13.51,1.79,27.1,2.91,40.71,3.7,56.56,3.25,113.34,4,170,5.83q84.64,2.73,169.28,5.45c52.9,1.63,105.92,2.71,158.78-.65,58.55-3.72,117-13.12,172.29-33.14a1.52,1.52,0,0,0,1.05-1l8.3-48.29a1.53,1.53,0,0,0-1.45-1.9c-48.87-3.59-97.79-6.92-146.79-8.18q-72-1.86-143.83,3.45c-95.71,7-190.79,21.18-286.67,25.85-54.63,2.67-109.26.4-163.91,1.58-1.92,0-1.93,3,0,3Z"/><path d="M2123.82,315.18c-17-.42-40.81,1.49-45,21.92-4,19.66,6.75,42.33,19.5,56.69,13,14.61,36.47,29.87,56.69,22.21,8.12-3.07,14.83-9.93,15.8-18.81,1.21-11-5.49-20.69-12.07-28.83-4.78-5.93-9.39-11.66-12.76-18.53-3.11-6.35-5.52-13.07-9.15-19.16-5.61-9.41-15.26-17.73-26.88-16.21-1.89.24-1.91,3.25,0,3,23.25-3,28.43,27.86,38.21,42.17,5.51,8,13,14.83,17.07,23.79,4.8,10.48,2.88,22.1-7.61,28.05-17.88,10.15-40.8-3.34-53.64-16.06s-21.55-30.07-22.73-48.12c-.76-11.51,3.71-21.3,14.73-25.71,8.74-3.5,18.56-3.63,27.83-3.4,1.93.05,1.93-2.95,0-3Z"/><path d="M2126.93,419.88c4.16,21.77,8.34,43.59,10.33,65.69a271.41,271.41,0,0,1,1.1,33.25c-.26,8.26-3,18.37.25,26.28,3,7.24,10.77,12.29,17.17,16.26a137.63,137.63,0,0,0,23.33,11.08c8.54,3.26,17.26,6,25.81,9.25,2.69,1,6.28,2,7.88,4.72,1.77,3,.59,7.19,0,10.32-1,5.54-2,11.06-3,16.59l-13.32,73.23c-.35,1.89,2.54,2.7,2.89.8q6-33.2,12.08-66.39l2.84-15.63c.89-4.88,2.44-10.07,2.4-15.07-.09-8.15-7.7-10.28-14.11-12.6-18.22-6.59-37.64-12-53.05-24.3-3.69-3-7.45-6.33-8.74-11.06-1.44-5.29-.13-11.27.21-16.63a249.44,249.44,0,0,0-.22-33.26c-1.71-24.69-6.35-49.05-11-73.33-.36-1.89-3.25-1.09-2.89.8Z"/><path d="M2133.72,551.09a108.82,108.82,0,0,0,8.06,33,106.35,106.35,0,0,0,7.08,13.86c2.86,4.7,7.69,9.26,9.48,14.48,2,6-.32,14.18-1,20.33L2155,653.5l-4.62,41.43c-.22,1.92,2.78,1.9,3,0L2158,653.5l2.2-19.73c.68-6.1,2.38-12.94,1.75-19.07-.48-4.75-3.67-8.19-6.34-11.92a103,103,0,0,1-18.91-51.69c-.16-1.91-3.16-1.93-3,0Z"/><path d="M2136.15,492.92q14,13.26,28.6,25.84,7.13,6.12,14.41,12.07c3.53,2.88,7.78,7.67,12.24,9.12,8.61,2.78,15-10.41,18.67-16a187.84,187.84,0,0,0,16.48-32c.72-1.79-2.18-2.57-2.89-.8a184.5,184.5,0,0,1-13.8,27.54c-2.49,4.06-5.12,8-7.94,11.87-2.28,3.11-3.91,6-8,6-3.91.08-6-2.48-9-4.87q-24.17-19.47-46.67-40.87c-1.4-1.33-3.53.79-2.12,2.12Z"/><path d="M2137.6,498.35c10.12,1.78,19.5-1.55,29.25-3.78a58.09,58.09,0,0,1,35.28,2.83,1.5,1.5,0,0,0,1.84-1,182.05,182.05,0,0,1,11.09-30.7c.81-1.73-1.77-3.26-2.59-1.51a186.29,186.29,0,0,0-11.39,31.42l1.85-1.05a59.74,59.74,0,0,0-30.57-4c-11.36,1.56-22.3,7-34,5-1.89-.33-2.7,2.56-.8,2.9Z"/><path d="M2204,456.68l32.34-3.69-1.44-1.9a299.27,299.27,0,0,0-5.75,57.58l2.25-1.29a25,25,0,0,0-22.26-2.77l1.9,1.45a121,121,0,0,0-8.24-59.21c-.72-1.76-3.62-1-2.89.8a119.24,119.24,0,0,1,8.13,58.41,1.5,1.5,0,0,0,1.89,1.45,22.15,22.15,0,0,1,20,2.46,1.52,1.52,0,0,0,2.26-1.3,295.89,295.89,0,0,1,5.64-56.79c.17-.85-.41-2-1.45-1.89L2204,453.68c-1.9.21-1.92,3.22,0,3Z"/><path d="M2102,352.5a1.5,1.5,0,0,0,0-3,1.5,1.5,0,0,0,0,3Z"/><path d="M2128,354.5a1.5,1.5,0,0,0,0-3,1.5,1.5,0,0,0,0,3Z"/><path d="M2124.51,351.22l-6-2c-1.84-.6-2.63,2.3-.8,2.89l6,1.95c1.84.6,2.63-2.3.8-2.89Z"/><path d="M2103.18,346.46c-2.3,3.29-1.39,10,3.55,10.19,4.19.17,7.07-5.71,3.41-8.34-1.57-1.13-3.07,1.47-1.52,2.59,1.22.87-1.07,3.28-2.39,2.53-1.91-1.08-1.5-4-.46-5.46s-1.49-3.08-2.59-1.51Z"/><path d="M2113.1,376.88a27,27,0,0,1,18.6-2.86c1.88.38,2.69-2.51.8-2.89a30.34,30.34,0,0,0-20.92,3.16c-1.69.93-.18,3.52,1.52,2.59Z"/><path d="M2507.05,325.37a36.73,36.73,0,0,0-38.6.24c-11.75,7.46-17.13,21.67-15,35.21a32.71,32.71,0,0,0,26.1,27.38c13.25,2.57,26.52-3.08,32.18-15.66,8.14-18.1-.91-37.23-9.19-53.41-.88-1.72-3.47-.21-2.59,1.51,8.07,15.78,17.71,35.69,7.89,53-8.27,14.55-28.34,15.52-40.73,5.73-12.87-10.17-14.62-30.69-5.15-43.71,9.8-13.48,29.73-16.3,43.55-7.68,1.64,1,3.15-1.57,1.51-2.59Z"/><path d="M2475.88,387l1.22,50.49.59,24.75.31,12.87c.08,3.23,1.66,10.91-2.36,12.58-5.68,2.36-13.85-2.78-18.35-5.75-4.91-3.25-9.51-7-14.74-9.78-6-3.19-12.45-3.89-19.08-5.05-7.31-1.26-15.64-4.13-17.21-12.38-.36-1.89-3.25-1.09-2.89.8,3.17,16.7,24.92,13,36.42,18.59,10.93,5.29,21.76,18.79,35.15,16.74,6.85-1.05,6.26-7.25,6.13-12.78l-.71-29.7L2478.88,387c0-1.93-3-1.93-3,0Z"/><path d="M2476.78,482.74c-12.82-1.88-19.77-13.57-26-23.65-5.32-8.57-11.21-16.89-20.83-20.86-1.79-.74-2.56,2.16-.8,2.89,20.94,8.66,22.44,40.93,46.87,44.51,1.89.28,2.71-2.61.8-2.89Z"/><path d="M2469.48,491.64l-24.26,51.76c-1.85,3.93-3.54,8-5.6,11.82-2.35,4.37-5.36,6.15-9.35,8.6-5.31,3.28-6.68,8.38-7.38,14.33-4.35,37.36-5.33,75.31-4.32,112.88,0,1.93,3,1.93,3,0a862,862,0,0,1,3.94-109.21c.4-3.94.48-8.57,2.66-12.05s6-4.16,9-6.5c5.9-4.68,8.4-13.55,11.49-20.14l23.43-50c.82-1.74-1.77-3.27-2.59-1.52Z"/><path d="M2441,564.69a94.19,94.19,0,0,0,1.41,34.13c2.64,11.34,7.86,21.69,12.6,32.25a110.86,110.86,0,0,1,9.51,36.46c1.08,12,1.57,24,5.15,35.55.57,1.84,3.47,1.06,2.9-.79-3.59-11.59-4-23.65-5.13-35.64a107.49,107.49,0,0,0-7.59-31.95c-4.27-10.2-9.62-20-12.89-30.55a89.82,89.82,0,0,1-3.07-38.66c.26-1.89-2.64-2.7-2.89-.8Z"/><path d="M2415.27,683.76a33,33,0,0,1-20.85,3.7c-1.89-.29-2.71,2.6-.8,2.89a36.37,36.37,0,0,0,23.17-4c1.7-.92.18-3.51-1.52-2.59Z"/><path d="M2470.3,701.8a246.67,246.67,0,0,0-49.83-14.64c-1.89-.34-2.7,2.55-.8,2.9a246.45,246.45,0,0,1,49.83,14.63c1.78.74,2.56-2.16.8-2.89Z"/><path d="M2204,688.49a47.27,47.27,0,0,0,26.8-6.12c1.69-.94.17-3.54-1.51-2.59a44.33,44.33,0,0,1-25.29,5.71c-1.93-.14-1.92,2.87,0,3Z"/><path d="M2157.49,701l18,3.87c1.88.41,2.69-2.48.8-2.89l-18-3.88c-1.88-.4-2.69,2.49-.8,2.9Z"/><path d="M2387.69,408.22l3.5,24,1.82,12.47c.43,2.92.53,6.25,1.9,8.94,2.5,4.9,8.4,5.43,13.25,6.15a177.62,177.62,0,0,0,21.6,1.84c2.43,0,8.3.43,8.31-3.54,0-2.19-2.52-5.44-3.14-7.69a46.34,46.34,0,0,1-1.41-10.75c-.48-14.52.1-28.55-2.47-43a1.51,1.51,0,0,0-2.2-.9,104.07,104.07,0,0,1-32.93,8.82c-1.91.18-1.93,3.19,0,3a108.71,108.71,0,0,0,34.44-9.23l-2.2-.9c2.22,12.44,2.44,24.66,2.32,37.24a68.51,68.51,0,0,0,1,14.16c.5,2.47,1.48,4.59,2.2,7,1.05,3.41-.55,2.86-3.94,2.79a174.05,174.05,0,0,1-17.53-1.29,60.82,60.82,0,0,1-9.85-1.64c-4.88-1.47-5.56-5.61-6.2-9.88-1.89-12.79-3.73-25.58-5.6-38.36-.28-1.91-3.17-1.1-2.89.79Z"/><path d="M2475,343.5a1.5,1.5,0,0,0,0-3,1.5,1.5,0,0,0,0,3Z"/><path d="M2489,344.5a1.5,1.5,0,0,0,0-3,1.5,1.5,0,0,0,0,3Z"/><path d="M2469,365.58a38.44,38.44,0,0,1,22.93,4.26c1.7.9,3.22-1.68,1.51-2.59a41.26,41.26,0,0,0-24.44-4.67c-1.89.22-1.92,3.22,0,3Z"/><path d="M2838.94,325.31a1.5,1.5,0,0,0,0-3,1.5,1.5,0,0,0,0,3Z"/><path d="M1801.77,168.08v-35.3h4v14h.38a7.25,7.25,0,0,1,2.91-3.26,9.37,9.37,0,0,1,4.87-1.17,8.38,8.38,0,0,1,6.36,2.45,9.54,9.54,0,0,1,2.36,6.9v16.36h-4V152.7a7.36,7.36,0,0,0-1.48-5,5.53,5.53,0,0,0-4.35-1.68,6.69,6.69,0,0,0-5.2,2,7.28,7.28,0,0,0-1.81,5.17v15Z"/><path d="M1846.77,161.54h4a8.83,8.83,0,0,1-3.7,5.12,12.24,12.24,0,0,1-6.94,1.86,10.47,10.47,0,0,1-8.32-3.52q-3.08-3.52-3.07-9.53t3.09-9.53a10.44,10.44,0,0,1,8.3-3.57,10,10,0,0,1,8,3.41q2.92,3.41,2.93,9.29v1.55H1833v.19a9.25,9.25,0,0,0,2.13,5.95,6.55,6.55,0,0,0,5.16,2.2,8.5,8.5,0,0,0,4.08-.88A5.46,5.46,0,0,0,1846.77,161.54ZM1835.14,148a8.44,8.44,0,0,0-2.18,5.39h13.93A8,8,0,0,0,1845,148a6.23,6.23,0,0,0-4.85-2A6.58,6.58,0,0,0,1835.14,148Z"/><path d="M1861.61,142.81v26.51q0,3.92-1.88,5.67t-5.86,1.76h-.7v-3.44h.61a3.88,3.88,0,0,0,3-.92,4.43,4.43,0,0,0,.82-3V142.81Zm-4-6a2.7,2.7,0,0,1-.83-2,2.66,2.66,0,0,1,.83-2,2.81,2.81,0,0,1,4.79,2,2.73,2.73,0,0,1-.82,2,2.79,2.79,0,0,1-4,0Z"/><path d="M1883.05,168.08v-35.3h4v14h.38a7.22,7.22,0,0,1,2.92-3.26,9.3,9.3,0,0,1,4.86-1.17,8.38,8.38,0,0,1,6.36,2.45,9.54,9.54,0,0,1,2.36,6.9v16.36h-4V152.7a7.36,7.36,0,0,0-1.49-5,5.5,5.5,0,0,0-4.35-1.68,6.69,6.69,0,0,0-5.2,2,7.28,7.28,0,0,0-1.81,5.17v15Z"/><path d="M1931.94,142.81q-1.89,5.12-3.28,8.87t-2.78,7.53q-1.39,3.76-3.29,8.87h-4.13l-9.35-25.27h4.32l6.91,20.82h.37l6.92-20.82Z"/><path d="M1939.2,165q-3.14-3.51-3.13-9.57t3.13-9.59a12.13,12.13,0,0,1,17,0q3.13,3.49,3.13,9.59t-3.13,9.57a12.11,12.11,0,0,1-17,0Zm14-2.61a13.49,13.49,0,0,0,0-13.94,7.44,7.44,0,0,0-11.07,0,13.49,13.49,0,0,0,0,13.94,7.42,7.42,0,0,0,11.07,0Z"/><path d="M1965.69,168.08V142.81h3.85v3.75h.37a5.34,5.34,0,0,1,2.53-3,8.6,8.6,0,0,1,4.48-1.17l1.06,0,1,.08v4a7.27,7.27,0,0,0-1.1-.16c-.58-.05-1.07-.08-1.47-.08a6.71,6.71,0,0,0-4.76,1.74,5.72,5.72,0,0,0-1.88,4.4v15.66Z"/><path d="M1985.59,165c-1.92-2.37-2.88-5.55-2.88-9.51s1-7.14,2.9-9.52a9.47,9.47,0,0,1,7.71-3.56,9.58,9.58,0,0,1,4.75,1.17,7.75,7.75,0,0,1,3.18,3.26h.35v-14h4v35.3h-3.84v-4h-.38a8.56,8.56,0,0,1-3.33,3.29,9.63,9.63,0,0,1-4.76,1.18A9.42,9.42,0,0,1,1985.59,165Zm3.26-16.44a13.2,13.2,0,0,0,0,13.86,6.46,6.46,0,0,0,5.42,2.51,6.54,6.54,0,0,0,5.44-2.53,12.93,12.93,0,0,0,0-13.8,7.05,7.05,0,0,0-10.84,0Z"/><path d="M2014.38,166.5A6.81,6.81,0,0,1,2012,161q0-6.93,9.21-7.48l7.29-.44v-2.3q0-4.83-5.72-4.83a7.89,7.89,0,0,0-3.78.82,3.75,3.75,0,0,0-1.92,2.32H2013a6.75,6.75,0,0,1,3.15-4.88,11.82,11.82,0,0,1,6.77-1.84c3.08,0,5.45.74,7.11,2.24a7.85,7.85,0,0,1,2.5,6.17v17.3h-3.85v-3.73h-.37a8.29,8.29,0,0,1-3.23,3.1,9.61,9.61,0,0,1-4.55,1.07A9.22,9.22,0,0,1,2014.38,166.5Zm12-3.33a5.81,5.81,0,0,0,2-4.51v-2.32l-6.8.44q-5.54.38-5.53,4.13a3.52,3.52,0,0,0,1.45,3,6,6,0,0,0,3.66,1.07A7.51,7.51,0,0,0,2026.41,163.17Z"/><path d="M2039.94,168.08V142.81h3.85v4h.37a7.42,7.42,0,0,1,2.82-3.26,8.87,8.87,0,0,1,4.77-1.17,8.57,8.57,0,0,1,6.55,2.42q2.29,2.43,2.29,6.93v16.36h-4V152.7a7.4,7.4,0,0,0-1.47-5.06,5.71,5.71,0,0,0-4.48-1.64,6.33,6.33,0,0,0-4.83,1.9,7.25,7.25,0,0,0-1.81,5.23v15Z"/><path d="M2084.55,175.9a7.17,7.17,0,0,1-3.24-5h4.26a3.72,3.72,0,0,0,2,2.47,8.85,8.85,0,0,0,4.36.93,8.05,8.05,0,0,0,5.31-1.59,5.37,5.37,0,0,0,1.91-4.37v-5h-.37a8.43,8.43,0,0,1-3.26,3.23,9.6,9.6,0,0,1-4.67,1.13,9.47,9.47,0,0,1-7.74-3.48,16.15,16.15,0,0,1,0-18.34,9.45,9.45,0,0,1,7.73-3.51,9.9,9.9,0,0,1,4.84,1.2,7.94,7.94,0,0,1,3.27,3.25h.38v-4h3.84v25.71a8.3,8.3,0,0,1-3,6.75c-2,1.68-4.76,2.51-8.22,2.51A13,13,0,0,1,2084.55,175.9Zm12.67-14.23a11.91,11.91,0,0,0,0-13.2,6.68,6.68,0,0,0-5.5-2.47,6.42,6.42,0,0,0-5.41,2.47,12.41,12.41,0,0,0,0,13.2,6.42,6.42,0,0,0,5.41,2.47A6.68,6.68,0,0,0,2097.22,161.67Z"/><path d="M2111.67,166.5a6.78,6.78,0,0,1-2.42-5.5q0-6.93,9.21-7.48l7.29-.44v-2.3q0-4.83-5.72-4.83a7.89,7.89,0,0,0-3.78.82,3.75,3.75,0,0,0-1.92,2.32h-4.08a6.77,6.77,0,0,1,3.14-4.88,11.88,11.88,0,0,1,6.78-1.84c3.08,0,5.45.74,7.11,2.24a7.85,7.85,0,0,1,2.5,6.17v17.3h-3.85v-3.73h-.37a8.24,8.24,0,0,1-3.24,3.1,9.57,9.57,0,0,1-4.54,1.07A9.21,9.21,0,0,1,2111.67,166.5Zm12-3.33a5.81,5.81,0,0,0,2.05-4.51v-2.32l-6.8.44q-5.53.38-5.53,4.13a3.52,3.52,0,0,0,1.45,3,6,6,0,0,0,3.66,1.07A7.51,7.51,0,0,0,2123.7,163.17Zm-7.38-25.42a5.38,5.38,0,0,1,0-7.64,5.54,5.54,0,0,1,7.69,0,5.36,5.36,0,0,1,0,7.64,5.54,5.54,0,0,1-7.69,0Zm5.9-1.77a3,3,0,0,0,0-4.11,2.87,2.87,0,0,0-4.91,2.06,2.79,2.79,0,0,0,.82,2,2.93,2.93,0,0,0,4.09,0Z"/><path d="M2137.23,168.08V142.81h3.84v3.75h.38a5.3,5.3,0,0,1,2.53-3,8.6,8.6,0,0,1,4.48-1.17l1.06,0,.95.08v4a7.27,7.27,0,0,0-1.1-.16c-.58-.05-1.07-.08-1.48-.08a6.7,6.7,0,0,0-4.75,1.74,5.72,5.72,0,0,0-1.88,4.4v15.66Z"/><path d="M2170.68,165c-1.93-2.37-2.89-5.55-2.89-9.51s1-7.14,2.91-9.52a9.47,9.47,0,0,1,7.71-3.56,9.58,9.58,0,0,1,4.75,1.17,7.78,7.78,0,0,1,3.17,3.26h.35v-14h4v35.3h-3.84v-4h-.37a8.56,8.56,0,0,1-3.33,3.29,9.63,9.63,0,0,1-4.76,1.18A9.42,9.42,0,0,1,2170.68,165Zm3.25-16.44a13.2,13.2,0,0,0,0,13.86,7.12,7.12,0,0,0,10.87,0,12.9,12.9,0,0,0,0-13.8,7.05,7.05,0,0,0-10.84,0Z"/><path d="M2215.28,161.54h4a8.87,8.87,0,0,1-3.7,5.12,12.26,12.26,0,0,1-6.94,1.86,10.45,10.45,0,0,1-8.32-3.52q-3.07-3.52-3.07-9.53t3.09-9.53a10.43,10.43,0,0,1,8.3-3.57,10,10,0,0,1,8,3.41q2.92,3.41,2.93,9.29v1.55h-18.17v.19a9.3,9.3,0,0,0,2.12,5.95,6.58,6.58,0,0,0,5.17,2.2,8.5,8.5,0,0,0,4.08-.88A5.51,5.51,0,0,0,2215.28,161.54ZM2203.65,148a8.44,8.44,0,0,0-2.18,5.39h13.92a7.92,7.92,0,0,0-1.92-5.39,6.23,6.23,0,0,0-4.85-2A6.58,6.58,0,0,0,2203.65,148Z"/><path d="M2227.65,136.27h4v6.54h5.63v3.38h-5.63v14.29a4.84,4.84,0,0,0,.89,3.24,3.66,3.66,0,0,0,2.86,1q.54,0,.93,0l.95-.07V168a11.62,11.62,0,0,1-2.37.24c-2.59,0-4.46-.53-5.59-1.57s-1.7-2.78-1.7-5.18V146.19h-4.08v-3.38h4.08Z"/><path d="M2244.21,136.65c1.7-1.77,4.19-2.65,7.49-2.65a10.44,10.44,0,0,1,7.18,2.43,7.71,7.71,0,0,1,2.76,6,8.29,8.29,0,0,1-1.33,4.75,11.15,11.15,0,0,1-3.57,3.34,9.5,9.5,0,0,0-3,2.5,5.33,5.33,0,0,0-.79,3v1.53h-4.1v-2.16a6.84,6.84,0,0,1,1.12-4,11.13,11.13,0,0,1,3.56-3.12,9.35,9.35,0,0,0,2.91-2.5,5.43,5.43,0,0,0,.87-3.14,4.67,4.67,0,0,0-1.56-3.61,5.91,5.91,0,0,0-4.18-1.43,6.1,6.1,0,0,0-4.26,1.46,5.71,5.71,0,0,0-1.79,4h-4A9.71,9.71,0,0,1,2244.21,136.65Zm4.63,30.94a3.32,3.32,0,1,1,5.58-2.35,3.2,3.2,0,0,1-.9,2.35,3.46,3.46,0,0,1-4.68,0Z"/><path d="M-25.66,633.83c119.39-5.16,239.44-10.32,358.55,2.54,30.05,3.25,59.7,8.32,89.51,13.23,26.16,4.31,52,5.8,77.87-1.15,49.41-13.3,91-46.54,136.68-68.35,95.66-45.67,204.19-63.76,309.52-52.26,54.89,6,107.1,22,159.58,38.41,51.79,16.18,105.06,32.31,159.85,32,26.44-.17,52-5,77.21-12.85,25.41-7.91,50.33-17.85,76.5-23.11,27-5.42,53.85-4.14,78.56,8.79,19.42,10.16,36.52,24.61,56.91,32.94a72.34,72.34,0,0,0,29.24,5.64c1.93,0,1.93-3,0-3-24.23.55-44.41-13.32-64-25.85-19.11-12.24-38.41-22.56-61.47-24.42-52.29-4.2-100.36,25.45-150.54,34.88-55.75,10.48-112.34-1.51-165.93-17.08C1089.18,558.7,1037,539.44,982.22,529.9c-101.34-17.66-207.33-7.33-303.5,29.12a561.31,561.31,0,0,0-69,31.59c-22.49,12.22-44,26.11-66.88,37.68-24.49,12.4-50.71,21.91-78.45,22.27-30.43.4-60.63-7.68-90.6-12-117.65-17.07-237-14.41-355.4-9.58q-22,.9-44.06,1.87c-1.92.08-1.93,3.08,0,3Z"/><path d="M185.18,624.89,185.12,288V192.32h-3a184.07,184.07,0,0,1-3.23,60.08c-1.72,7.68-3.6,23.26-12.81,25.59s-19.1-7.6-25.76-12.63c-27.21-20.59-54.76-42.66-73-72-9.42-15.1-17.11-32.66-16.4-50.81.7-17.62,11-31.53,26.79-38.84,33.66-15.62,71,.21,106-6.47,19.59-3.73,39.43-15.77,59.73-8.93,8.65,2.92,15.79,9.6,16.26,19.11.38,7.86-3.54,16.1-11.74,17.81-1.91.4-1.09,3.24.79,2.89l54.1-9.88c15.42-2.82,33.28-7.37,48.31-.64,13.3,6,18.64,19.92,17,33.8-1.77,14.64-10.29,26.66-22.25,34.93-14.21,9.82-31.2,14.44-47.67,18.87a1.52,1.52,0,0,0-.66,2.51c7.39,7.66,17.49,2.1,24.9-2.57,7.15-4.5,21.37-17.36,30-9.75,4,3.5,4.31,9.65,4.9,14.52q.86,7,1.3,14.1a191.38,191.38,0,0,1-.32,30c-1.83,19.58-7.45,39.2-19.16,55.24-12.68,17.38-31.85,27.87-48,41.57a184.29,184.29,0,0,0-33.73,38A208.41,208.41,0,0,0,223.82,483c-3.95,38.08,2.67,77.11,20.59,111.06.9,1.7,3.49.19,2.59-1.52-33.29-63.08-26.4-143.33,13-202.13a181.42,181.42,0,0,1,35.4-39.21c15.88-13,34-23.5,46.32-40.38,10.75-14.77,16.46-32.56,18.85-50.53a179,179,0,0,0,1.34-29.91c-.32-9.28-.69-19.13-2.77-28.21-1.32-5.8-4.95-11.18-11.24-11.92-5.26-.62-10.47,2-14.87,4.61-8.06,4.68-24.23,20.27-33.38,10.78l-.66,2.51c28.78-7.74,64.54-18.85,71.42-52.24,2.54-12.32.43-26.29-9.14-35.18-11.74-10.91-28.91-10.28-43.69-8.06-23.3,3.48-46.46,8.38-69.63,12.61l.79,2.89c12.68-2.64,16.86-18.47,12-29.23-6.88-15.08-27-17.21-41.31-14.54-11.21,2.09-21.76,6.63-32.84,9.22-12,2.82-24.38,2.75-36.62,2-20.13-1.23-40.4-4.12-60.26.83C74.13,100.31,59.19,109,52.2,123.94c-8,17.14-4,37.3,3.36,53.91,16,36.17,47.3,62.63,78,86.14,8,6.11,17,15.18,27.22,17,9.09,1.61,14.29-5,16.92-12.83,8.1-24.15,10.11-50.61,7.38-75.83-.21-1.87-3-2-3,0l0,336.89,0,95.68a1.5,1.5,0,0,0,3,0Z"/><path d="M540.6,648.47c4.1-60.21,8.09-121.84-5.37-181.22a278.79,278.79,0,0,0-15.38-47.71l-.9,2.2q106.11-23.58,212.79-44.44,53.34-10.41,106.81-20.15c8-1.46,18.48-4.09,20.78,6.4,1.41,6.44-.57,13.21-2.22,19.41a270,270,0,0,0-8.21,47.65A274.22,274.22,0,0,0,862.28,540c.61,1.82,3.51,1,2.89-.8a269.63,269.63,0,0,1-4.94-156.3c2.25-8.39,5.71-22.1-2.91-28.22-5.68-4-13.35-1.54-19.57-.41q-14.09,2.56-28.18,5.18-27.69,5.15-55.34,10.47-55.8,10.74-111.44,22.23Q580.38,405,518.15,418.85a1.52,1.52,0,0,0-.89,2.2c30.52,71.65,25.5,151.54,20.34,227.42-.13,1.93,2.87,1.92,3,0Z"/><path d="M453.94,491.43a516.66,516.66,0,0,1,67.17-190c8.52-14.3,17.43-28.85,28-41.74,10.35-12.63,24-23.49,41.23-19.91,7.48,1.56,14.6,4.74,22.31,5a35.66,35.66,0,0,0,18.41-4.62c11.92-6.51,20.61-17.72,28.59-28.4q39-52.21,78-104.49L735,105.76c-24,39.79-5.71,90,23.16,121.78,33.67,37.11,80.41,58.35,117,92.08,20.14,18.57,37.25,40.9,44.27,67.77a1.5,1.5,0,0,0,2.89-.8c-25.62-98-154.62-112-188.58-204.09-9-24.49-10-52.31,3.85-75.22,1-1.7-1.46-3-2.59-1.52l-69.62,93.33c-9.64,12.92-19,27.67-32.78,36.64-6.48,4.22-13.89,6.68-21.68,6-8.36-.79-16.08-4.67-24.43-5.57-14.11-1.52-26.28,6.84-35.44,16.74-10.54,11.39-18.94,25-27.12,38.13A518.21,518.21,0,0,0,451,490.63c-.27,1.89,2.62,2.7,2.9.8Z"/><path d="M1180.42,520.07l1.45-157.16-2.95.4a303,303,0,0,0,42.24,95.13,1.52,1.52,0,0,0,2.59,0c39.89-58.94,64.78-127,107.92-183.83a274.63,274.63,0,0,1,41.28-44l-2.56-1.06c1.72,21-8.92,39.51-18.51,57.35-10.23,19-18.38,37.8-17.3,59.89,1.23,25.24,9.64,50.22,15.78,74.58l9.74,38.69c3.24,12.87,5.76,26.23,9.85,38.86,2.68,8.26,9.69,12.56,18.07,8.79,10.16-4.58,11.42-16.63,12-26.42h-3a45.2,45.2,0,0,1-12.49,34,1.52,1.52,0,0,0,.66,2.51c6.13,2.55,8.1,10.3,4.52,15.67-1.07,1.61,1.52,3.11,2.59,1.51a13.67,13.67,0,0,0-6.31-20.07l.66,2.51a48.21,48.21,0,0,0,13.37-36.1,1.5,1.5,0,0,0-3,0c-.6,9.65-2.8,25.87-16.13,24.82-7-.55-8.26-8.53-9.63-14l-4.39-17.41-17.3-68.68c-5.62-22.32-13.17-45.42-12-68.7,1-19.93,10.58-37.15,19.81-54.33,8.91-16.59,17.6-34.11,16-53.48a1.52,1.52,0,0,0-2.56-1.06c-55.08,46.6-84.41,114.12-118.24,176.06-9.76,17.87-20,35.48-31.43,52.35h2.59a300.57,300.57,0,0,1-41.94-94.42,1.5,1.5,0,0,0-2.94.4l-1.45,157.16a1.5,1.5,0,0,0,3,0Z"/><path d="M1170,758.22c-7.65-6.51-14.82,4.74-15.72,11.62-.73,5.51.68,11.07-1.22,16.49a9.21,9.21,0,0,1-2.13,3.68c-2.24,2.09-3.08,1-4.62-1.06-2.33-3.11-4.52-6.32-6.59-9.6-16.34-25.83-25.22-55.37-37.63-83.09-10.86-24.26-25.67-47.57-47.37-63.52-10.34-7.6-22.28-13.18-35-15.14-10.31-1.57-24.51-2.18-29.3,9.27-3,7-2.08,15.68-2.25,23.1l-.69,29.69q-.7,30.68-1.42,61.36l2.26-1.3A49.1,49.1,0,0,1,967.7,710c-.45-1.88-3.34-1.08-2.9.8a52.23,52.23,0,0,0,21.94,31.54A1.51,1.51,0,0,0,989,741q1.15-50,2.31-99.95c.18-7.17.39-15.71,7.7-19.42,6.13-3.11,14.75-2,21.27-.92,12.22,2.11,23.61,7.63,33.47,15,45.55,34.19,53,93.64,80.31,140.13,2,3.34,4,6.62,6.23,9.82,1.56,2.28,3.87,7.09,6.32,8.48,2.89,1.62,6.78-2.06,8.09-4.32,2.45-4.18,2.58-9.64,2.5-14.35-.06-3.36-.12-6.37,1.23-9.53s5.3-9.15,9.4-5.66c1.47,1.25,3.6-.86,2.13-2.12Z"/><path d="M673.66,766.17l-82.43-70c-11-9.37-22.39-20.79-36.78-24.7-10.65-2.9-22.16.75-27.06,11.15-5.43,11.5-2.15,25.73,1.33,37.29l1.44-1.9a119.24,119.24,0,0,1-70-26.24c-1.49-1.2-3.63.91-2.13,2.12A122.69,122.69,0,0,0,530.16,721a1.51,1.51,0,0,0,1.45-1.9c-3.64-12.13-8.15-30.37,2.25-40.54,14.48-14.16,35.49,2.93,46.93,12.65l90.75,77.12c1.46,1.24,3.6-.87,2.12-2.12Z"/><path d="M857.46,115.84l5.07,21a1.51,1.51,0,0,0,2.89,0A354.44,354.44,0,0,1,922.67,29.55l-2.56-1.06c.87,12.53,2.91,28.7,16,34.38,8,3.46,16.87,1.71,25.3,1.78,8,.07,23.77,6.28,18.63,17-.7,1.48,1.09,3.08,2.36,1.82,6.08-6.06,13.64-13.71,22.92-13.71,7.76,0,16.74,9.15,11.27,16.63-1,1.32.84,2.65,2,2,16.63-8.18,38.82,8,36,26.35-.29,1.88,2.6,2.7,2.9.79,3.24-21-21.25-39.15-40.4-29.73l2.06,2.06c5.56-7.6-.86-17.29-8.61-20.2-11.62-4.37-22.82,6.19-30.29,13.64l2.35,1.81c2.72-5.69.68-11.22-3.86-15.33-5.91-5.35-13.09-6.4-20.78-6.16-10.2.32-21.61,1.57-28.33-7.87-5.12-7.2-6-16.81-6.58-25.35-.08-1.14-1.69-2.18-2.56-1.06a358.42,358.42,0,0,0-58,108.64h2.89l-5.07-21c-.45-1.87-3.34-1.08-2.89.8Z"/></svg>
