<svg xmlns="http://www.w3.org/2000/svg" width="1600" height="900" viewBox="0 0 1600 900">
  <defs>
    <style>
      .cls-1 {
        fill: #f5e5d4;
      }

      .cls-2 {
        fill: #f1f4ff;
      }

      .cls-3 {
        fill: #e3eafe;
      }

      .cls-4 {
        fill: #fdf8f0;
      }

      .cls-5 {
        fill: #e0dbd4;
      }

      .cls-6 {
        fill: #efe6ef;
      }
    </style>
  </defs>
  <title>Baggrundsogsani</title>
  <g id="Layer_1" data-name="Layer 1">
    <rect class="cls-1" x="-22" y="223" width="1708" height="956"/>
    <rect class="cls-2" x="-165" y="-100" width="1951" height="550"/>
    <ellipse class="cls-1" cx="629" cy="511" rx="284" ry="158"/>
    <ellipse class="cls-1" cx="1600" cy="597.5" rx="372" ry="226.5"/>
  </g>
  <g id="Layer_2" data-name="Layer 2">
    <polygon class="cls-3" points="296.58 283.5 296.58 325.5 208.88 325.5 208.88 373.5 141.89 373.5 141.89 357.5 129.1 357.5 129.1 256 115.71 256 115.71 357.5 45.67 357.5 45.67 265.5 0 265.5 0 450 45.67 450 141.89 450 208.88 450 296.58 450 366 450 366 283.5 296.58 283.5"/>
  </g>
  <g id="Layer_3" data-name="Layer 3">
    <path class="cls-4" d="M101,448a8.92,8.92,0,0,0-5.25-8.47,10,10,0,0,0-.21-1.37,9.61,9.61,0,0,0,2.56-6.66c0-4.92-3.41-8.91-7.64-8.93a7.63,7.63,0,0,0-6.84-4.88,6.82,6.82,0,0,0-2.63.53A7.32,7.32,0,0,0,75.07,415c-3.31,0-6.14,2.45-7.21,5.87a6.78,6.78,0,0,0-3.51-1c-4.24,0-7.67,4-7.67,8.93v.27c-3.33,1-5.8,4.48-5.8,8.66A9.44,9.44,0,0,0,54.09,445,8.94,8.94,0,0,0,49,453.4c0,4.93,3.44,8.93,7.68,8.93a6.82,6.82,0,0,0,4-1.3,11.2,11.2,0,0,0-.08,1.3c0,4.93,3.43,8.93,7.67,8.93a7,7,0,0,0,4.93-2.08V510H77.1V470.56a7.19,7.19,0,0,0,5.65,2.89,6.77,6.77,0,0,0,2.68-.56,6.73,6.73,0,0,0,2.68.56c4.24,0,7.68-4,7.68-8.93A9.25,9.25,0,0,0,92,456.8a6.82,6.82,0,0,0,1.36.14C97.56,456.94,101,452.94,101,448Z"/>
    <path class="cls-4" d="M345,485a8.92,8.92,0,0,0-5.25-8.47,10,10,0,0,0-.21-1.37,9.61,9.61,0,0,0,2.56-6.66c0-4.92-3.41-8.91-7.64-8.93a7.63,7.63,0,0,0-6.84-4.88,6.82,6.82,0,0,0-2.63.53,7.32,7.32,0,0,0-5.92-3.23c-3.31,0-6.14,2.45-7.21,5.87a6.78,6.78,0,0,0-3.51-1c-4.24,0-7.67,4-7.67,8.93v.27c-3.33,1-5.8,4.48-5.8,8.66a9.44,9.44,0,0,0,3.21,7.26,8.94,8.94,0,0,0-5.09,8.4c0,4.93,3.44,8.93,7.68,8.93a6.82,6.82,0,0,0,4-1.3,11.2,11.2,0,0,0-.08,1.3c0,4.93,3.43,8.93,7.67,8.93a7,7,0,0,0,4.93-2.08V547h3.91V507.56a7.19,7.19,0,0,0,5.65,2.89,6.77,6.77,0,0,0,2.68-.56,6.73,6.73,0,0,0,2.68.56c4.24,0,7.68-4,7.68-8.93A9.25,9.25,0,0,0,336,493.8a6.82,6.82,0,0,0,1.36.14C341.56,493.94,345,489.94,345,485Z"/>
    <path class="cls-4" d="M293,503a8.92,8.92,0,0,0-5.25-8.47,10,10,0,0,0-.21-1.37,9.61,9.61,0,0,0,2.56-6.66c0-4.92-3.41-8.91-7.64-8.93a7.63,7.63,0,0,0-6.84-4.88,6.82,6.82,0,0,0-2.63.53,7.32,7.32,0,0,0-5.92-3.23c-3.31,0-6.14,2.45-7.21,5.87a6.78,6.78,0,0,0-3.51-1c-4.24,0-7.67,4-7.67,8.93v.27c-3.33,1-5.8,4.48-5.8,8.66a9.44,9.44,0,0,0,3.21,7.26,8.94,8.94,0,0,0-5.09,8.4c0,4.93,3.44,8.93,7.68,8.93a6.82,6.82,0,0,0,4-1.3,11.2,11.2,0,0,0-.08,1.3c0,4.93,3.43,8.93,7.67,8.93a7,7,0,0,0,4.93-2.08V565h3.91V525.56a7.19,7.19,0,0,0,5.65,2.89,6.77,6.77,0,0,0,2.68-.56,6.73,6.73,0,0,0,2.68.56c4.24,0,7.68-4,7.68-8.93A9.25,9.25,0,0,0,284,511.8a6.82,6.82,0,0,0,1.36.14C289.56,511.94,293,507.94,293,503Z"/>
    <path class="cls-4" d="M301,430a8.92,8.92,0,0,0-5.25-8.47,10,10,0,0,0-.21-1.37,9.61,9.61,0,0,0,2.56-6.66c0-4.92-3.41-8.91-7.64-8.93a7.63,7.63,0,0,0-6.84-4.88,6.82,6.82,0,0,0-2.63.53,7.32,7.32,0,0,0-5.92-3.23c-3.31,0-6.14,2.45-7.21,5.87a6.78,6.78,0,0,0-3.51-1c-4.24,0-7.67,4-7.67,8.93v.27c-3.33,1-5.8,4.48-5.8,8.66a9.44,9.44,0,0,0,3.21,7.26,8.94,8.94,0,0,0-5.09,8.4c0,4.93,3.44,8.93,7.68,8.93a6.82,6.82,0,0,0,4-1.3,11.2,11.2,0,0,0-.08,1.3c0,4.93,3.43,8.93,7.67,8.93a7,7,0,0,0,4.93-2.08V492h3.91V452.56a7.19,7.19,0,0,0,5.65,2.89,6.77,6.77,0,0,0,2.68-.56,6.73,6.73,0,0,0,2.68.56c4.24,0,7.68-4,7.68-8.93A9.25,9.25,0,0,0,292,438.8a6.82,6.82,0,0,0,1.36.14C297.56,438.94,301,434.94,301,430Z"/>
    <path class="cls-4" d="M345,450a8.92,8.92,0,0,0-5.25-8.47,10,10,0,0,0-.21-1.37,9.61,9.61,0,0,0,2.56-6.66c0-4.92-3.41-8.91-7.64-8.93a7.63,7.63,0,0,0-6.84-4.88,6.82,6.82,0,0,0-2.63.53,7.32,7.32,0,0,0-5.92-3.23c-3.31,0-6.14,2.45-7.21,5.87a6.78,6.78,0,0,0-3.51-1c-4.24,0-7.67,4-7.67,8.93v.27c-3.33,1-5.8,4.48-5.8,8.66a9.44,9.44,0,0,0,3.21,7.26,8.94,8.94,0,0,0-5.09,8.4c0,4.93,3.44,8.93,7.68,8.93a6.82,6.82,0,0,0,4-1.3,11.2,11.2,0,0,0-.08,1.3c0,4.93,3.43,8.93,7.67,8.93a7,7,0,0,0,4.93-2.08V512h3.91V472.56a7.19,7.19,0,0,0,5.65,2.89,6.77,6.77,0,0,0,2.68-.56,6.73,6.73,0,0,0,2.68.56c4.24,0,7.68-4,7.68-8.93A9.25,9.25,0,0,0,336,458.8a6.82,6.82,0,0,0,1.36.14C341.56,458.94,345,454.94,345,450Z"/>
    <path class="cls-4" d="M164,463a8.92,8.92,0,0,0-5.25-8.47,10,10,0,0,0-.21-1.37,9.61,9.61,0,0,0,2.56-6.66c0-4.92-3.41-8.91-7.64-8.93a7.63,7.63,0,0,0-6.84-4.88,6.82,6.82,0,0,0-2.63.53,7.32,7.32,0,0,0-5.92-3.23c-3.31,0-6.14,2.45-7.21,5.87a6.78,6.78,0,0,0-3.51-1c-4.24,0-7.67,4-7.67,8.93v.27c-3.33,1-5.8,4.48-5.8,8.66a9.44,9.44,0,0,0,3.21,7.26,8.94,8.94,0,0,0-5.09,8.4c0,4.93,3.44,8.93,7.68,8.93a6.82,6.82,0,0,0,4-1.3,11.2,11.2,0,0,0-.08,1.3c0,4.93,3.43,8.93,7.67,8.93a7,7,0,0,0,4.93-2.08V525h3.91V485.56a7.19,7.19,0,0,0,5.65,2.89,6.77,6.77,0,0,0,2.68-.56,6.73,6.73,0,0,0,2.68.56c4.24,0,7.68-4,7.68-8.93A9.25,9.25,0,0,0,155,471.8a6.82,6.82,0,0,0,1.36.14C160.56,471.94,164,467.94,164,463Z"/>
    <path class="cls-4" d="M175,450a8.92,8.92,0,0,0-5.25-8.47,10,10,0,0,0-.21-1.37,9.61,9.61,0,0,0,2.56-6.66c0-4.92-3.41-8.91-7.64-8.93a7.63,7.63,0,0,0-6.84-4.88,6.82,6.82,0,0,0-2.63.53,7.32,7.32,0,0,0-5.92-3.23c-3.31,0-6.14,2.45-7.21,5.87a6.78,6.78,0,0,0-3.51-1c-4.24,0-7.67,4-7.67,8.93v.27c-3.33,1-5.8,4.48-5.8,8.66a9.44,9.44,0,0,0,3.21,7.26,8.94,8.94,0,0,0-5.09,8.4c0,4.93,3.44,8.93,7.68,8.93a6.82,6.82,0,0,0,4-1.3,11.2,11.2,0,0,0-.08,1.3c0,4.93,3.43,8.93,7.67,8.93a7,7,0,0,0,4.93-2.08V512h3.91V472.56a7.19,7.19,0,0,0,5.65,2.89,6.77,6.77,0,0,0,2.68-.56,6.73,6.73,0,0,0,2.68.56c4.24,0,7.68-4,7.68-8.93A9.25,9.25,0,0,0,166,458.8a6.82,6.82,0,0,0,1.36.14C171.56,458.94,175,454.94,175,450Z"/>
    <path class="cls-4" d="M229,448a8.92,8.92,0,0,0-5.25-8.47,10,10,0,0,0-.21-1.37,9.61,9.61,0,0,0,2.56-6.66c0-4.92-3.41-8.91-7.64-8.93a7.63,7.63,0,0,0-6.84-4.88,6.82,6.82,0,0,0-2.63.53,7.32,7.32,0,0,0-5.92-3.23c-3.31,0-6.14,2.45-7.21,5.87a6.78,6.78,0,0,0-3.51-1c-4.24,0-7.67,4-7.67,8.93v.27c-3.33,1-5.8,4.48-5.8,8.66a9.44,9.44,0,0,0,3.21,7.26,8.94,8.94,0,0,0-5.09,8.4c0,4.93,3.44,8.93,7.68,8.93a6.82,6.82,0,0,0,4-1.3,11.2,11.2,0,0,0-.08,1.3c0,4.93,3.43,8.93,7.67,8.93a7,7,0,0,0,4.93-2.08V510h3.91V470.56a7.19,7.19,0,0,0,5.65,2.89,6.77,6.77,0,0,0,2.68-.56,6.73,6.73,0,0,0,2.68.56c4.24,0,7.68-4,7.68-8.93A9.25,9.25,0,0,0,220,456.8a6.82,6.82,0,0,0,1.36.14C225.56,456.94,229,452.94,229,448Z"/>
    <path class="cls-4" d="M249,450a8.92,8.92,0,0,0-5.25-8.47,10,10,0,0,0-.21-1.37,9.61,9.61,0,0,0,2.56-6.66c0-4.92-3.41-8.91-7.64-8.93a7.63,7.63,0,0,0-6.84-4.88,6.82,6.82,0,0,0-2.63.53,7.32,7.32,0,0,0-5.92-3.23c-3.31,0-6.14,2.45-7.21,5.87a6.78,6.78,0,0,0-3.51-1c-4.24,0-7.67,4-7.67,8.93v.27c-3.33,1-5.8,4.48-5.8,8.66a9.44,9.44,0,0,0,3.21,7.26,8.94,8.94,0,0,0-5.09,8.4c0,4.93,3.44,8.93,7.68,8.93a6.82,6.82,0,0,0,4-1.3,11.2,11.2,0,0,0-.08,1.3c0,4.93,3.43,8.93,7.67,8.93a7,7,0,0,0,4.93-2.08V512h3.91V472.56a7.19,7.19,0,0,0,5.65,2.89,6.77,6.77,0,0,0,2.68-.56,6.73,6.73,0,0,0,2.68.56c4.24,0,7.68-4,7.68-8.93A9.25,9.25,0,0,0,240,458.8a6.82,6.82,0,0,0,1.36.14C245.56,458.94,249,454.94,249,450Z"/>
    <path class="cls-5" d="M964,415.58a9.91,9.91,0,0,0-6.77-9.39,9.47,9.47,0,0,0-.27-1.52,9.89,9.89,0,0,0-6.54-17.27A9.89,9.89,0,0,0,941.6,382a10,10,0,0,0-3.39.59,9.89,9.89,0,0,0-16.91,2.92,9.9,9.9,0,0,0-14.41,8.8c0,.1,0,.2,0,.3a9.9,9.9,0,0,0-3.34,17.64A9.89,9.89,0,1,0,912,430a9.76,9.76,0,0,0-.11,1.44A9.9,9.9,0,0,0,928.17,439v45.23h5V440.57a12.64,12.64,0,1,0,19.14-15.26,10.19,10.19,0,0,0,1.76.16A9.89,9.89,0,0,0,964,415.58Z"/>
    <path class="cls-5" d="M997,448.58a9.91,9.91,0,0,0-6.77-9.39,9.47,9.47,0,0,0-.27-1.52,9.89,9.89,0,0,0-6.54-17.27A9.89,9.89,0,0,0,974.6,415a10,10,0,0,0-3.39.59,9.89,9.89,0,0,0-16.91,2.92,9.9,9.9,0,0,0-14.41,8.8c0,.1,0,.2,0,.3a9.9,9.9,0,0,0-3.34,17.64A9.89,9.89,0,1,0,945,463a9.76,9.76,0,0,0-.11,1.44A9.9,9.9,0,0,0,961.17,472v45.23h5V473.57a12.64,12.64,0,1,0,19.14-15.26,10.19,10.19,0,0,0,1.76.16A9.89,9.89,0,0,0,997,448.58Z"/>
    <path class="cls-5" d="M1023,403.58a9.91,9.91,0,0,0-6.77-9.39,9.47,9.47,0,0,0-.27-1.52,9.89,9.89,0,0,0-6.54-17.27,9.89,9.89,0,0,0-8.82-5.41,10,10,0,0,0-3.39.59,9.89,9.89,0,0,0-16.91,2.92,9.9,9.9,0,0,0-14.41,8.8c0,.1,0,.2,0,.3a9.9,9.9,0,0,0-3.34,17.64A9.89,9.89,0,1,0,971,418a9.76,9.76,0,0,0-.11,1.44A9.9,9.9,0,0,0,987.17,427v45.23h5V428.57a12.64,12.64,0,1,0,19.14-15.26,10.19,10.19,0,0,0,1.76.16A9.89,9.89,0,0,0,1023,403.58Z"/>
    <path class="cls-5" d="M1071,415.58a9.91,9.91,0,0,0-6.77-9.39,9.47,9.47,0,0,0-.27-1.52,9.89,9.89,0,0,0-6.54-17.27,9.89,9.89,0,0,0-8.82-5.41,10,10,0,0,0-3.39.59,9.89,9.89,0,0,0-16.91,2.92,9.9,9.9,0,0,0-14.41,8.8c0,.1,0,.2,0,.3a9.9,9.9,0,0,0-3.34,17.64A9.89,9.89,0,1,0,1019,430a9.76,9.76,0,0,0-.11,1.44,9.9,9.9,0,0,0,16.24,7.59v45.23h5V440.57a12.64,12.64,0,1,0,19.14-15.26,10.19,10.19,0,0,0,1.76.16A9.89,9.89,0,0,0,1071,415.58Z"/>
    <path class="cls-5" d="M1161,433.58a9.91,9.91,0,0,0-6.77-9.39,9.47,9.47,0,0,0-.27-1.52,9.89,9.89,0,0,0-6.54-17.27,9.89,9.89,0,0,0-8.82-5.41,10,10,0,0,0-3.39.59,9.89,9.89,0,0,0-16.91,2.92,9.9,9.9,0,0,0-14.41,8.8c0,.1,0,.2,0,.3a9.9,9.9,0,0,0-3.34,17.64A9.89,9.89,0,1,0,1109,448a9.76,9.76,0,0,0-.11,1.44,9.9,9.9,0,0,0,16.24,7.59v45.23h5V458.57a12.64,12.64,0,1,0,19.14-15.26,10.19,10.19,0,0,0,1.76.16A9.89,9.89,0,0,0,1161,433.58Z"/>
    <path class="cls-5" d="M1112,433.58a9.91,9.91,0,0,0-6.77-9.39,9.47,9.47,0,0,0-.27-1.52,9.89,9.89,0,0,0-6.54-17.27,9.89,9.89,0,0,0-8.82-5.41,10,10,0,0,0-3.39.59,9.89,9.89,0,0,0-16.91,2.92,9.9,9.9,0,0,0-14.41,8.8c0,.1,0,.2,0,.3a9.9,9.9,0,0,0-3.34,17.64A9.89,9.89,0,1,0,1060,448a9.76,9.76,0,0,0-.11,1.44,9.9,9.9,0,0,0,16.24,7.59v45.23h5V458.57a12.64,12.64,0,1,0,19.14-15.26,10.19,10.19,0,0,0,1.76.16A9.89,9.89,0,0,0,1112,433.58Z"/>
  </g>
  <g id="Layer_4" data-name="Layer 4">
    <path class="cls-6" d="M475.61,56.12h-7.33a17.49,17.49,0,0,0,3.54-10.86V39.93c0-8.21-5.05-14.93-11.22-14.93H386.07c-6.17,0-11.21,6.72-11.21,14.93v5.33a17.49,17.49,0,0,0,3.54,10.86h-8c-6.81,0-12.39,7.42-12.39,16.5v5.89C358,87.58,363.58,95,370.39,95H475.61C482.42,95,488,87.58,488,78.51V72.62C488,63.54,482.42,56.12,475.61,56.12Z"/>
    <path class="cls-6" d="M820.83,115.12H806c4.42-2.73,7.19-6.59,7.19-10.86V98.93c0-8.21-10.25-14.93-22.78-14.93H639c-12.53,0-22.78,6.72-22.78,14.93v5.33c0,4.27,2.77,8.13,7.19,10.86H607.17c-13.85,0-25.17,7.42-25.17,16.5v5.89c0,9.07,11.32,16.49,25.17,16.49H820.83c13.85,0,25.17-7.42,25.17-16.49v-5.89C846,122.54,834.68,115.12,820.83,115.12Z"/>
    <path class="cls-6" d="M1081.18,150.9H1073a25.78,25.78,0,0,0,4-14.27v-7c0-10.79-5.63-19.62-12.51-19.62H981.31c-6.88,0-12.51,8.83-12.51,19.62v7a25.78,25.78,0,0,0,4,14.27h-8.93c-7.6,0-13.82,9.76-13.82,21.68v7.74c0,11.93,6.22,21.68,13.82,21.68h117.36c7.6,0,13.82-9.75,13.82-21.68v-7.74C1095,160.66,1088.78,150.9,1081.18,150.9Z"/>
    <path class="cls-6" d="M1296.89,79.12h-9.53A21.53,21.53,0,0,0,1292,65.47v-6.7c0-10.32-6.57-18.77-14.59-18.77H1180.5c-8,0-14.59,8.45-14.59,18.77v6.7a21.53,21.53,0,0,0,4.61,13.65h-10.41c-8.86,0-16.11,9.33-16.11,20.74v7.4c0,11.41,7.25,20.74,16.11,20.74h136.78c8.86,0,16.11-9.33,16.11-20.74v-7.4C1313,88.45,1305.75,79.12,1296.89,79.12Z"/>
  </g>
</svg>
