<svg id="Layer_1" data-name="Layer 1" xmlns="http://www.w3.org/2000/svg" viewBox="0 0 1600 900"><title>bgtest</title><path d="M7.25,552.08c104.5,9.19,209.51,6.3,314.09.13C426.23,546,530.93,536.63,636,533.14c52.37-1.74,104.83-2,157.19.33,53.2,2.38,106.12,8.4,159.24,11.84,51.41,3.33,103.23,3.94,154.25-4.2,52.22-8.34,103-23.61,156-26.45,52.9-2.83,105.8,2.8,158.42,7.58L1581,536.74l40,3.63c1.92.17,1.91-2.83,0-3l-159.85-14.5c-52.81-4.8-105.78-11-158.84-11.88a499.34,499.34,0,0,0-76,4.11c-25.63,3.52-50.87,9.26-76.16,14.63a656.91,656.91,0,0,1-158.21,14.52c-52.73-1.63-105.18-7.66-157.78-11.4-52.83-3.76-105.81-4.67-158.76-3.72C570.22,531,465.47,539.91,360.66,546.75,256.12,553.58,151.15,558.4,46.45,552q-19.62-1.18-39.2-2.93c-1.92-.17-1.91,2.83,0,3Z"/><path d="M429.31,582.4a312.89,312.89,0,0,0,8.33-92.68c-.84-13.59-5.32-30.82,6.61-41,9.32-7.92,23.18-8.83,34.85-9.2,66.4-2.11,132.82-3.44,199.23-5.15l200.55-5.18,99.78-2.58c32.55-.84,65.13-1.94,97.7-1.15,16.18.38,32.35,1.25,48.46,2.88,8.58.87,17.34,1.65,25.8,3.37,8.72,1.77,11.78,7.47,13.55,15.59,7.09,32.43,13.66,65,20.49,97.48l5.13,24.44c.4,1.89,3.29,1.09,2.9-.8q-10.68-50.84-21.37-101.67c-1.65-7.88-2.94-16-5.08-23.73-1.39-5.07-3.78-9.69-8.59-12.2-5.69-3-13.08-3.12-19.33-3.93q-12.51-1.62-25.1-2.59c-34-2.7-68-2.32-102.06-1.51-34.45.81-68.89,1.76-103.34,2.65l-207.54,5.36-208.54,5.39c-20.09.52-53.22-.7-58,25.28-1.25,6.83-.25,13.81.34,20.65.7,8.19,1.08,16.42,1.13,24.64a306.67,306.67,0,0,1-3.89,50.64c-1.31,8.12-3,16.18-4.9,24.17-.45,1.88,2.44,2.68,2.89.8Z"/><path d="M440.93,511.27c48.77-1.06,97.55.92,146.31-.83,47.61-1.71,95.08-6,142.46-10.88,95.78-9.83,191.32-21,287.77-19.54,55,.83,109.85,4.53,164.66,8.55l-1.45-1.9-7.3,42.5c-.73,4.27-1.2,5.22-5.14,6.6-3.17,1.12-6.35,2.19-9.55,3.24q-10,3.27-20.13,6.11A585.88,585.88,0,0,1,1061.74,561c-53.39,7.51-107.48,8.71-161.33,8-55.67-.76-111.32-3.09-167-4.89l-170.73-5.51c-31.3-1-62.72-1.51-93.85-5.23-8-1-16.05-2.15-24-3.63-3.73-.7-7.46-1.46-11.16-2.29-1.28-.28-4-.39-4.9-1.52-.59-.72-.81-4.16-.86-4.78-1-12.69,7.2-25.24,19.28-29.21,1.83-.6,1-3.5-.79-2.9a31.2,31.2,0,0,0-18.76,17.2,32.55,32.55,0,0,0-2.74,11c-.18,2.78-.36,9.52,1.91,11.57,1.52,1.36,5.93,1.54,7.92,2q4.64,1,9.3,1.87,9.53,1.77,19.15,3c13.51,1.79,27.1,2.91,40.71,3.7,56.56,3.25,113.34,4,170,5.83q84.64,2.73,169.28,5.45c52.9,1.63,105.92,2.71,158.78-.65,58.55-3.72,117-13.12,172.29-33.14a1.52,1.52,0,0,0,1-1l8.3-48.29a1.53,1.53,0,0,0-1.45-1.9c-48.87-3.59-97.79-6.92-146.79-8.18q-72-1.86-143.83,3.45c-95.71,7-190.79,21.18-286.67,25.85-54.63,2.67-109.26.4-163.91,1.58-1.92,0-1.93,3,0,3Z"/><path d="M558.82,257.18c-17-.42-40.81,1.49-45,21.92-4,19.66,6.75,42.33,19.5,56.69C546.28,350.4,569.8,365.66,590,358c8.12-3.07,14.83-9.93,15.8-18.81,1.21-11-5.49-20.69-12.07-28.83-4.78-5.93-9.39-11.66-12.76-18.53-3.11-6.35-5.52-13.07-9.15-19.16-5.61-9.41-15.26-17.73-26.88-16.21-1.89.24-1.91,3.25,0,3,23.25-3,28.43,27.86,38.21,42.17,5.51,8,13,14.83,17.07,23.79,4.8,10.48,2.88,22.1-7.61,28.05-17.88,10.15-40.8-3.34-53.64-16.06s-21.55-30.07-22.73-48.12C515.5,277.78,520,268,531,263.58c8.74-3.5,18.56-3.63,27.83-3.4,1.93.05,1.93-2.95,0-3Z"/><path d="M561.93,361.88c4.16,21.77,8.34,43.59,10.33,65.69a271.41,271.41,0,0,1,1.1,33.25c-.26,8.26-3,18.37.25,26.28,3,7.24,10.77,12.29,17.17,16.26a137.63,137.63,0,0,0,23.33,11.08c8.54,3.26,17.26,6,25.81,9.25,2.69,1,6.28,2,7.88,4.72,1.77,3,.59,7.19.05,10.32-1,5.54-2,11.06-3,16.59l-13.32,73.23c-.35,1.89,2.54,2.7,2.89.8q6-33.2,12.08-66.39l2.84-15.63c.89-4.88,2.44-10.07,2.4-15.07-.09-8.15-7.7-10.28-14.11-12.6-18.22-6.59-37.64-12-53.05-24.3-3.69-2.95-7.45-6.33-8.74-11.06-1.44-5.29-.13-11.27.21-16.63a249.44,249.44,0,0,0-.22-33.26c-1.71-24.69-6.35-49.05-11-73.33-.36-1.89-3.25-1.09-2.89.8Z"/><path d="M568.72,493.09a108.82,108.82,0,0,0,8.06,33A106.35,106.35,0,0,0,583.86,540c2.86,4.7,7.69,9.26,9.48,14.48,2,6-.32,14.18-1,20.33L590,595.5l-4.62,41.43c-.22,1.92,2.78,1.9,3,0L593,595.5l2.2-19.73c.68-6.1,2.38-12.94,1.75-19.07-.48-4.75-3.67-8.19-6.34-11.92a103,103,0,0,1-18.91-51.69c-.16-1.91-3.16-1.93-3,0Z"/><path d="M571.15,434.92q14,13.26,28.6,25.84,7.13,6.12,14.41,12.07c3.53,2.88,7.78,7.67,12.24,9.12,8.61,2.78,15-10.41,18.67-16a187.84,187.84,0,0,0,16.48-32c.72-1.79-2.18-2.57-2.89-.8a184.5,184.5,0,0,1-13.8,27.54c-2.49,4.06-5.12,8-7.94,11.87-2.28,3.11-3.91,6-8,6-3.91.08-6-2.48-9-4.87q-24.16-19.47-46.67-40.87c-1.4-1.33-3.53.79-2.12,2.12Z"/><path d="M572.6,440.35c10.12,1.78,19.5-1.55,29.25-3.78a58.09,58.09,0,0,1,35.28,2.83,1.5,1.5,0,0,0,1.84-1,182.05,182.05,0,0,1,11.09-30.7c.81-1.73-1.77-3.26-2.59-1.51a186.29,186.29,0,0,0-11.39,31.42l1.85-1.05a59.74,59.74,0,0,0-30.57-4c-11.36,1.56-22.3,7-34,5-1.89-.33-2.7,2.56-.8,2.9Z"/><path d="M639,398.68,671.37,395l-1.44-1.9a299.27,299.27,0,0,0-5.75,57.58l2.25-1.29a25,25,0,0,0-22.26-2.77l1.9,1.45a121,121,0,0,0-8.24-59.21c-.72-1.76-3.62-1-2.89.8a119.24,119.24,0,0,1,8.13,58.41,1.5,1.5,0,0,0,1.89,1.45,22.15,22.15,0,0,1,20,2.46,1.52,1.52,0,0,0,2.26-1.3,295.89,295.89,0,0,1,5.64-56.79c.17-.85-.41-2-1.45-1.89L639,395.68c-1.9.21-1.92,3.22,0,3Z"/><path d="M537,294.5a1.5,1.5,0,0,0,0-3,1.5,1.5,0,0,0,0,3Z"/><path d="M563,296.5a1.5,1.5,0,0,0,0-3,1.5,1.5,0,0,0,0,3Z"/><path d="M559.51,293.22l-6-2c-1.84-.6-2.63,2.3-.8,2.89l6,1.95c1.84.6,2.63-2.3.8-2.89Z"/><path d="M538.18,288.46c-2.3,3.29-1.39,10,3.55,10.19,4.19.17,7.07-5.71,3.41-8.34-1.57-1.13-3.07,1.47-1.52,2.59,1.22.87-1.07,3.28-2.39,2.53-1.91-1.08-1.5-4-.46-5.46s-1.49-3.08-2.59-1.51Z"/><path d="M548.1,318.88A27,27,0,0,1,566.7,316c1.88.38,2.69-2.51.8-2.89a30.34,30.34,0,0,0-20.92,3.16c-1.69.93-.18,3.52,1.52,2.59Z"/><path d="M942.05,267.37a36.73,36.73,0,0,0-38.6.24c-11.75,7.46-17.13,21.67-15,35.21a32.71,32.71,0,0,0,26.1,27.38c13.25,2.57,26.52-3.08,32.18-15.66,8.14-18.1-.91-37.23-9.19-53.41-.88-1.72-3.47-.21-2.59,1.51,8.07,15.78,17.71,35.69,7.89,53-8.27,14.55-28.34,15.52-40.73,5.73-12.87-10.17-14.62-30.69-5.15-43.71,9.8-13.48,29.73-16.3,43.55-7.68,1.64,1,3.15-1.57,1.51-2.59Z"/><path d="M910.88,329l1.22,50.49.59,24.75.31,12.87c.08,3.23,1.66,10.91-2.36,12.58-5.68,2.36-13.85-2.78-18.35-5.75-4.91-3.25-9.51-7-14.74-9.78-6-3.19-12.45-3.89-19.08-5.05-7.31-1.26-15.64-4.13-17.21-12.38-.36-1.89-3.25-1.09-2.89.8,3.17,16.7,24.92,13,36.42,18.59,10.93,5.29,21.76,18.79,35.15,16.74,6.85-1.05,6.26-7.25,6.13-12.78l-.71-29.7L913.88,329c0-1.93-3-1.93-3,0Z"/><path d="M911.78,424.74c-12.82-1.88-19.77-13.57-26-23.65-5.32-8.57-11.21-16.89-20.83-20.86-1.79-.74-2.56,2.16-.8,2.89,20.94,8.66,22.44,40.93,46.87,44.51,1.89.28,2.71-2.61.8-2.89Z"/><path d="M904.48,433.64,880.22,485.4c-1.85,3.93-3.54,8-5.6,11.82-2.35,4.37-5.36,6.15-9.35,8.6-5.31,3.28-6.68,8.38-7.38,14.33-4.35,37.36-5.33,75.31-4.32,112.88,0,1.93,3,1.93,3,0a862,862,0,0,1,3.94-109.21c.4-3.94.48-8.57,2.66-12.05s6-4.16,9-6.5c5.9-4.68,8.4-13.55,11.49-20.14l23.43-50c.82-1.74-1.77-3.27-2.59-1.52Z"/><path d="M876,506.69a94.19,94.19,0,0,0,1.41,34.13c2.64,11.34,7.86,21.69,12.6,32.25a110.86,110.86,0,0,1,9.51,36.46c1.08,12,1.57,24,5.15,35.55.57,1.84,3.47,1.06,2.9-.79-3.59-11.59-4-23.65-5.13-35.64a107.49,107.49,0,0,0-7.59-31.95c-4.27-10.2-9.62-20-12.89-30.55a89.82,89.82,0,0,1-3.07-38.66c.26-1.89-2.64-2.7-2.89-.8Z"/><path d="M850.27,625.76a33,33,0,0,1-20.85,3.7c-1.89-.29-2.71,2.6-.8,2.89a36.37,36.37,0,0,0,23.17-4c1.7-.92.18-3.51-1.52-2.59Z"/><path d="M905.3,643.8a246.67,246.67,0,0,0-49.83-14.64c-1.89-.34-2.7,2.55-.8,2.9a246.45,246.45,0,0,1,49.83,14.63c1.78.74,2.56-2.16.8-2.89Z"/><path d="M639,630.49a47.27,47.27,0,0,0,26.8-6.12c1.69-.94.17-3.54-1.51-2.59A44.33,44.33,0,0,1,639,627.49c-1.93-.14-1.92,2.87,0,3Z"/><path d="M592.49,643l18,3.87c1.88.41,2.69-2.48.8-2.89l-18-3.88c-1.88-.4-2.69,2.49-.8,2.9Z"/><path d="M822.69,350.22l3.5,24L828,386.67c.43,2.92.53,6.25,1.9,8.94,2.5,4.9,8.4,5.43,13.25,6.15a177.62,177.62,0,0,0,21.6,1.84c2.43,0,8.3.43,8.31-3.54,0-2.19-2.52-5.44-3.14-7.69a46.34,46.34,0,0,1-1.41-10.75c-.48-14.52.1-28.55-2.47-43a1.51,1.51,0,0,0-2.2-.9,104.07,104.07,0,0,1-32.93,8.82c-1.91.18-1.93,3.19,0,3a108.71,108.71,0,0,0,34.44-9.23l-2.2-.9c2.22,12.44,2.44,24.66,2.32,37.24a68.51,68.51,0,0,0,1,14.16c.5,2.47,1.48,4.59,2.2,7,1,3.41-.55,2.86-3.94,2.79a174.05,174.05,0,0,1-17.53-1.29,60.82,60.82,0,0,1-9.85-1.64c-4.88-1.47-5.56-5.61-6.2-9.88-1.89-12.79-3.73-25.58-5.6-38.36-.28-1.91-3.17-1.1-2.89.79Z"/><path d="M910,285.5a1.5,1.5,0,0,0,0-3,1.5,1.5,0,0,0,0,3Z"/><path d="M924,286.5a1.5,1.5,0,0,0,0-3,1.5,1.5,0,0,0,0,3Z"/><path d="M904,307.58a38.44,38.44,0,0,1,22.93,4.26c1.7.9,3.22-1.68,1.51-2.59A41.26,41.26,0,0,0,904,304.58c-1.89.22-1.92,3.22,0,3Z"/></svg>
