<svg id="Layer_4" data-name="Layer 4" xmlns="http://www.w3.org/2000/svg" width="3200" height="900" viewBox="0 0 3200 900">
  <defs>
    <style>
      .cls-1 {
        fill: #efe6ef;
      }
    </style>
  </defs>
  <title>skyer</title>
  <path class="cls-1" d="M1275.61,56.12h-7.33a17.49,17.49,0,0,0,3.54-10.86V39.93c0-8.21-5-14.93-11.22-14.93h-74.53c-6.17,0-11.21,6.72-11.21,14.93v5.33a17.49,17.49,0,0,0,3.54,10.86h-8c-6.81,0-12.39,7.42-12.39,16.5v5.89c0,9.07,5.58,16.49,12.39,16.49h105.22c6.81,0,12.39-7.42,12.39-16.49V72.62C1288,63.54,1282.42,56.12,1275.61,56.12Z"/>
  <path class="cls-1" d="M1620.83,115.12H1606c4.42-2.73,7.19-6.59,7.19-10.86V98.93c0-8.21-10.25-14.93-22.78-14.93H1439c-12.53,0-22.78,6.72-22.78,14.93v5.33c0,4.27,2.77,8.13,7.19,10.86h-16.25c-13.85,0-25.17,7.42-25.17,16.5v5.89c0,9.07,11.32,16.49,25.17,16.49h213.66c13.85,0,25.17-7.42,25.17-16.49v-5.89C1646,122.54,1634.68,115.12,1620.83,115.12Z"/>
  <path class="cls-1" d="M1881.18,150.9H1873a25.78,25.78,0,0,0,4-14.27v-7c0-10.79-5.63-19.62-12.51-19.62h-83.13c-6.88,0-12.51,8.83-12.51,19.62v7a25.78,25.78,0,0,0,4,14.27h-8.93c-7.6,0-13.82,9.76-13.82,21.68v7.74c0,11.93,6.22,21.68,13.82,21.68h117.36c7.6,0,13.82-9.75,13.82-21.68v-7.74C1895,160.66,1888.78,150.9,1881.18,150.9Z"/>
  <path class="cls-1" d="M2096.89,79.12h-9.53A21.53,21.53,0,0,0,2092,65.47v-6.7c0-10.32-6.57-18.77-14.59-18.77H1980.5c-8,0-14.59,8.45-14.59,18.77v6.7a21.53,21.53,0,0,0,4.61,13.65h-10.41c-8.86,0-16.11,9.33-16.11,20.74v7.4c0,11.41,7.25,20.74,16.11,20.74h136.78c8.86,0,16.11-9.33,16.11-20.74v-7.4C2113,88.45,2105.75,79.12,2096.89,79.12Z"/>
</svg>
