<svg id="Layer_1" data-name="Layer 1" xmlns="http://www.w3.org/2000/svg" viewBox="0 0 484.7 766.27"><defs><style>.cls-1{fill:#202532;}.cls-2,.cls-27,.cls-3{fill:#fff;}.cls-10,.cls-13,.cls-3{stroke:#fff;}.cls-10,.cls-12,.cls-13,.cls-14,.cls-18,.cls-19,.cls-20,.cls-24,.cls-27,.cls-3{stroke-miterlimit:10;}.cls-4{fill:#e9eced;}.cls-5{isolation:isolate;}.cls-28,.cls-6{font-size:12px;font-family:MyriadPro-Regular, Myriad Pro;}.cls-6{fill:#f4912d;}.cls-7{letter-spacing:0.01em;}.cls-8{letter-spacing:0.02em;}.cls-9{letter-spacing:0em;}.cls-10{fill:#ccc;}.cls-11{fill:#f9e2c7;}.cls-12,.cls-13,.cls-20,.cls-24{fill:none;}.cls-12,.cls-18,.cls-19,.cls-20,.cls-24{stroke:#000;}.cls-12{stroke-width:0.75px;}.cls-14{fill:#0c0b0c;stroke:#070404;}.cls-15{fill:#99e0cc;}.cls-16{fill:#6c51ad;}.cls-17{fill:#e0dfda;}.cls-18{fill:#050502;}.cls-19{fill:#070602;}.cls-21{fill:#efa02e;}.cls-22{fill:#4f6aa8;}.cls-23{fill:#dd953e;}.cls-24{stroke-width:2px;}.cls-25{fill:#7e24b2;}.cls-26{fill:#070707;}.cls-27{stroke:#ccc;}.cls-28{fill:#bcc2c4;}.cls-29{letter-spacing:0em;}.cls-30{fill:#b2b6b7;}</style></defs><title>telefon</title><rect class="cls-1" x="35.91" y="23" width="429" height="732" rx="11.5" ry="11.5"/><path class="cls-2" d="M453.41,23.5a11,11,0,0,1,11,11v709a11,11,0,0,1-11,11h-406a11,11,0,0,1-11-11h0V34.5a11,11,0,0,1,11-11h406m0-1h-406a12,12,0,0,0-12,12v709a12,12,0,0,0,12,12h406a12,12,0,0,0,12-12V34.5A12,12,0,0,0,453.41,22.5Z"/><rect class="cls-2" x="82.91" y="73" width="335" height="608"/><path d="M417.41,73.5v607h-334V73.5h334m1-1h-336v609h336Z"/><circle class="cls-2" cx="138.41" cy="55.5" r="10.5"/><path d="M138.41,45.5a10,10,0,1,1-10,10,10,10,0,0,1,10-10m0-1a11,11,0,1,0,11,11A11,11,0,0,0,138.41,44.5Z"/><path class="cls-2" d="M250.73,741.35A27.35,27.35,0,0,1,231.08,695,26.56,26.56,0,0,1,250,687.15a27.55,27.55,0,0,1,27.46,27.28A26.69,26.69,0,0,1,251,741.35Z"/><path d="M250,687.64h0a26.87,26.87,0,0,1,19.29,45.55,26.18,26.18,0,0,1-18.58,7.67,26.86,26.86,0,0,1-19.32-45.55A26.15,26.15,0,0,1,250,687.64m0-1a27.17,27.17,0,0,0-19.29,8,27.85,27.85,0,0,0,20,47.22,27.19,27.19,0,0,0,19.29-8,27.85,27.85,0,0,0-20-47.22Z"/><rect class="cls-3" x="202.91" y="56" width="98" height="3"/><rect class="cls-4" x="83.41" y="72.5" width="334" height="87"/><rect class="cls-4" x="83.41" y="578.5" width="334" height="102"/><g class="cls-5"><text class="cls-6" transform="translate(191.41 98.38)"><tspan class="cls-7">M</tspan><tspan x="9.79" y="0">in s</tspan><tspan class="cls-8" x="26.56" y="0">k</tspan><tspan class="cls-9" x="32.4" y="0">a</tspan><tspan x="38.14" y="0">t&lt;3</tspan></text></g><g class="cls-5"><text class="cls-6" transform="translate(191.41 140.53)"><tspan class="cls-7">M</tspan><tspan x="9.79" y="0">in mus&lt;3</tspan></text></g><ellipse id="i" class="cls-10" cx="386.91" cy="99" rx="18.5" ry="16.5"/><ellipse id="i-2" class="cls-2" cx="387.08" cy="90.69" rx="1.55" ry="1.68" transform="translate(115 380.57) rotate(-60)"/><rect id="i-3" class="cls-3" x="385.91" y="96" width="2" height="16"/><ellipse class="cls-11" cx="161.39" cy="94.5" rx="18" ry="15.07"/><ellipse class="cls-11" cx="159.71" cy="138.6" rx="16.7" ry="13.25"/><line class="cls-12" x1="163.74" y1="140.08" x2="165.79" y2="139.72"/><g id="arrow"><rect class="cls-2" x="104.41" y="110.5" width="27" height="2"/><line class="cls-13" x1="103.41" y1="111.5" x2="117.41" y2="92.5"/><line class="cls-13" x1="118.41" y1="127.5" x2="103.41" y2="111.5"/></g><path id="hat" class="cls-14" d="M156.17,88.5h10.24s1.29-4.76-3-4C163.41,84.5,155,79.74,156.17,88.5Z"/><g id="sløjfe"><ellipse class="cls-15" cx="165.11" cy="85.45" rx="0.9" ry="0.69" transform="translate(52.68 233.51) rotate(-80.15)"/><polygon class="cls-15" points="167.57 86.21 166.6 88.17 164.88 85.26 167.57 86.21"/><polygon class="cls-15" points="163.53 83.17 165.46 85.69 162.56 85.13 163.53 83.17"/></g><rect id="hoved" class="cls-16" x="150.53" y="88.39" width="21.76" height="16.35" rx="8.17" ry="8.17"/><ellipse class="cls-17" cx="166.2" cy="93.39" rx="2.14" ry="2.7"/><ellipse class="cls-18" cx="166.33" cy="93.23" rx="1.36" ry="1.59"/><ellipse class="cls-17" cx="155.84" cy="93.39" rx="2.14" ry="2.7"/><ellipse class="cls-19" cx="155.84" cy="93.31" rx="1.23" ry="1.35"/><path class="cls-20" d="M157.46,99.9s3.24,3.33,7.64,0"/><path class="cls-21" d="M166.69,104.74h-9.81l-.89,4.07s7.7.76,12.13-.39Z"/><g id="butterfly"><ellipse cx="162.07" cy="105.96" rx="0.68" ry="0.92" transform="translate(-0.5 0.76) rotate(-0.27)"/><polygon points="164.44 104.96 164.47 107.25 161.75 105.92 164.44 104.96"/><polygon points="159.71 105.04 162.43 105.91 159.74 107.34 159.71 105.04"/></g><ellipse class="cls-20" cx="161.41" cy="94.5" rx="18" ry="15"/><line class="cls-12" x1="163.39" y1="139.9" x2="166.02" y2="139.55"/><path class="cls-22" d="M160.08,149.78c.08-.21,14.76-16.3,9.24-20.42-.79-.59-3.57-1.61-5.42-.51a12.15,12.15,0,0,0-4.16,4.5s-2.17-5.3-6.51-4.85C153.23,128.5,141.35,129.76,160.08,149.78Z"/><line class="cls-12" x1="153.8" y1="139.64" x2="156.08" y2="139.9"/><polygon class="cls-23" points="165.01 127.04 162.66 130.74 167.31 130.47 165.01 127.04"/><polygon class="cls-23" points="169.4 133.94 171.81 130.26 167.15 130.48 169.4 133.94"/><ellipse class="cls-23" cx="167.18" cy="130.44" rx="0.89" ry="0.7"/><polygon class="cls-23" points="147.47 130.52 150.44 133.94 152.4 130.6 147.47 130.52"/><polygon class="cls-23" points="157.26 130.85 154.34 127.41 152.34 130.72 157.26 130.85"/><ellipse class="cls-23" cx="152.31" cy="130.68" rx="0.89" ry="0.7"/><ellipse class="cls-2" cx="155.71" cy="136.69" rx="3.51" ry="2.76"/><ellipse class="cls-2" cx="164.05" cy="136.69" rx="3.51" ry="2.76"/><ellipse cx="155.71" cy="136.78" rx="2.09" ry="1.65"/><ellipse cx="164.16" cy="136.78" rx="2.09" ry="1.65"/><line class="cls-12" x1="154.03" y1="139.81" x2="155.4" y2="139.99"/><line class="cls-12" x1="162.93" y1="139.93" x2="165.16" y2="140.23"/><path class="cls-24" d="M157.28,144.89a4.4,4.4,0,0,0,5.37,0"/><path class="cls-25" d="M154,150.85a9.56,9.56,0,0,1,12.18-.25h0s-4.24,2.09-12.23.21"/><path class="cls-26" d="M159,148.59a18.39,18.39,0,0,1,2.1,0L160,149.65Z"/><polygon class="cls-26" points="160.06 149.65 159.19 150.25 159.54 151.58 160.56 151.57 160.91 150.25 160.06 149.65"/><path class="cls-20" d="M176.41,138.6c0,7-7.12,12.76-16,13h-.87c-8.94-.15-16.13-5.9-16.13-13s7.39-13,16.5-13S176.41,131.44,176.41,138.6Z"/><rect class="cls-27" x="152.11" y="592" width="253.29" height="70.18" rx="12" ry="12"/><text class="cls-28" transform="translate(166.41 605.56)"><tspan class="cls-29">A</tspan><tspan x="7.39" y="0">a</tspan></text><rect class="cls-30" x="93.5" y="595.71" width="46.83" height="25.66" rx="5.51" ry="5.51"/><rect class="cls-30" x="108.86" y="591.19" width="16.37" height="5.79" rx="2.89" ry="2.89"/><ellipse class="cls-2" cx="116.92" cy="607.56" rx="8.8" ry="7.17"/><ellipse class="cls-30" cx="116.78" cy="607.56" rx="6.77" ry="5.52"/><polygon id="_Path_" data-name="&lt;Path&gt;" class="cls-30" points="99.26 635.11 134.83 645.57 101.53 657.49 114.35 646.05 99.26 635.11"/></svg>
