<svg xmlns="http://www.w3.org/2000/svg" viewBox="0 0 4000 350"><defs><style>.cls-1{fill:#d1aa9b;}.cls-2{fill:#7f6309;}.cls-3{fill:#927e42;}.cls-4{fill:#b29b94;}.cls-5{fill:#efa02e;}.cls-6{fill:#0c0b0c;stroke:#070404;}.cls-11,.cls-12,.cls-13,.cls-18,.cls-25,.cls-6,.cls-8{stroke-miterlimit:10;}.cls-7{fill:#99e0cc;}.cls-8{fill:#030405;}.cls-11,.cls-12,.cls-13,.cls-18,.cls-25,.cls-8{stroke:#000;}.cls-9{fill:#6c51ad;}.cls-10{fill:#e0dfda;}.cls-11{fill:#050502;}.cls-12,.cls-18,.cls-25{fill:none;}.cls-13{fill:#070602;}.cls-14{fill:#040505;}.cls-15{fill:#4f6aa8;}.cls-16{fill:#dd953e;}.cls-17{fill:#fff;}.cls-18{stroke-width:0.75px;}.cls-19{fill:#c176a7;}.cls-20{fill:#7e24b2;}.cls-21{fill:#070707;}.cls-22{fill:#87a0aa;}.cls-23{fill:#4e69a7;}.cls-24{fill:#f484c1;}.cls-25{stroke-width:2px;}.cls-26{fill:#70c3d6;}.cls-27{fill:#5f98f2;}</style></defs><title>textingtest</title><g id="Layer_3" data-name="Layer 3"><rect class="cls-1" y="-0.5" width="500" height="351"/><rect class="cls-2" x="422.96" y="202.22" width="15.69" height="13.02"/><rect class="cls-2" x="422.96" y="170.61" width="15.69" height="14.88"/><rect class="cls-3" x="77.75" y="114.83" width="15.69" height="7.44"/><rect class="cls-2" x="422.94" y="235.01" width="12.84" height="58.32"/><polygon class="cls-2" points="414.37 282.73 407.95 282.73 405.81 235.01 414.37 235.01 414.37 282.73"/><rect class="cls-2" x="422.94" y="139.57" width="14.99" height="15.91"/><rect class="cls-2" x="422.94" y="114.83" width="14.99" height="7.07"/><rect class="cls-2" x="78.27" y="235.01" width="12.84" height="58.32"/><rect class="cls-2" x="97.54" y="235.01" width="12.84" height="49.49"/><rect class="cls-2" x="78.27" y="203.2" width="14.99" height="12.37"/><rect class="cls-2" x="78.27" y="171.39" width="14.99" height="14.14"/><rect class="cls-2" x="76.13" y="141.34" width="14.99" height="12.37"/><polygon class="cls-3" points="50.44 235.01 41.88 215.57 470.03 215.57 459.33 233.25 50.44 235.01"/><path class="cls-3" d="M76.13,203.2S24.75,205,54.73,187.29l400.32-1.76s27.83,8.83,0,17.67Z"/><path class="cls-3" d="M76.13,171.39s-44.95,5.3-25.69-14.14c0,0,2.14-1.77,21.41-1.77H457.19s12.84,0,10.7,12.37c0,0-2.14,7.07-12.84,3.54Z"/><path class="cls-3" d="M76.13,139.57s-32.11,5.3-30-5.3,6.42-10.6,10.71-10.6h393.9s21.4,0,17.12,10.6-17.12,7.07-17.12,7.07Z"/><rect class="cls-1" x="1000" y="-0.5" width="500" height="351"/><rect class="cls-2" x="1422.96" y="202.22" width="15.69" height="13.02"/><rect class="cls-2" x="1422.96" y="170.61" width="15.69" height="14.88"/><rect class="cls-3" x="1077.75" y="114.83" width="15.69" height="7.44"/><rect class="cls-2" x="1422.94" y="235.01" width="12.84" height="58.32"/><polygon class="cls-2" points="1414.37 282.73 1407.95 282.73 1405.81 235.01 1414.37 235.01 1414.37 282.73"/><rect class="cls-2" x="1422.94" y="139.57" width="14.99" height="15.91"/><rect class="cls-2" x="1422.94" y="114.83" width="14.99" height="7.07"/><rect class="cls-2" x="1078.27" y="235.01" width="12.84" height="58.32"/><rect class="cls-2" x="1097.54" y="235.01" width="12.84" height="49.49"/><rect class="cls-2" x="1078.27" y="203.2" width="14.99" height="12.37"/><rect class="cls-2" x="1078.27" y="171.39" width="14.99" height="14.14"/><rect class="cls-2" x="1076.13" y="141.34" width="14.99" height="12.37"/><polygon class="cls-3" points="1050.44 235.01 1041.88 215.57 1470.03 215.57 1459.33 233.25 1050.44 235.01"/><path class="cls-3" d="M1076.13,203.2s-51.38,1.77-21.4-15.91l400.32-1.76s27.83,8.83,0,17.67Z"/><path class="cls-3" d="M1076.13,171.39s-45,5.3-25.69-14.14c0,0,2.14-1.77,21.41-1.77h385.34s12.84,0,10.7,12.37c0,0-2.14,7.07-12.84,3.54Z"/><path class="cls-3" d="M1076.13,139.57s-32.11,5.3-30-5.3,6.42-10.6,10.71-10.6h393.9s21.4,0,17.12,10.6-17.12,7.07-17.12,7.07Z"/><rect class="cls-1" x="2000" y="-0.5" width="500" height="351"/><rect class="cls-2" x="2422.96" y="202.22" width="15.69" height="13.02"/><rect class="cls-2" x="2422.96" y="170.61" width="15.69" height="14.88"/><rect class="cls-3" x="2077.75" y="114.83" width="15.69" height="7.44"/><rect class="cls-2" x="2422.94" y="235.01" width="12.84" height="58.32"/><polygon class="cls-2" points="2414.37 282.73 2407.95 282.73 2405.81 235.01 2414.37 235.01 2414.37 282.73"/><rect class="cls-2" x="2422.94" y="139.57" width="14.99" height="15.91"/><rect class="cls-2" x="2422.94" y="114.83" width="14.99" height="7.07"/><rect class="cls-2" x="2078.27" y="235.01" width="12.84" height="58.32"/><rect class="cls-2" x="2097.54" y="235.01" width="12.84" height="49.49"/><rect class="cls-2" x="2078.27" y="203.2" width="14.99" height="12.37"/><rect class="cls-2" x="2078.27" y="171.39" width="14.99" height="14.14"/><rect class="cls-2" x="2076.13" y="141.34" width="14.99" height="12.37"/><polygon class="cls-3" points="2050.44 235.01 2041.88 215.57 2470.03 215.57 2459.33 233.25 2050.44 235.01"/><path class="cls-3" d="M2076.13,203.2s-51.38,1.77-21.4-15.91l400.32-1.76s27.83,8.83,0,17.67Z"/><path class="cls-3" d="M2076.13,171.39s-45,5.3-25.69-14.14c0,0,2.14-1.77,21.41-1.77h385.34s12.84,0,10.7,12.37c0,0-2.14,7.07-12.84,3.54Z"/><path class="cls-3" d="M2076.13,139.57s-32.11,5.3-30-5.3,6.42-10.6,10.71-10.6h393.9s21.4,0,17.12,10.6-17.12,7.07-17.12,7.07Z"/><rect class="cls-1" x="2999" y="-0.5" width="500" height="351"/><rect class="cls-2" x="3421.96" y="202.22" width="15.69" height="13.02"/><rect class="cls-2" x="3421.96" y="170.61" width="15.69" height="14.88"/><rect class="cls-3" x="3076.75" y="114.83" width="15.69" height="7.44"/><rect class="cls-2" x="3421.94" y="235.01" width="12.84" height="58.32"/><polygon class="cls-2" points="3413.37 282.73 3406.95 282.73 3404.81 235.01 3413.37 235.01 3413.37 282.73"/><rect class="cls-2" x="3421.94" y="139.57" width="14.99" height="15.91"/><rect class="cls-2" x="3421.94" y="114.83" width="14.99" height="7.07"/><rect class="cls-2" x="3077.27" y="235.01" width="12.84" height="58.32"/><rect class="cls-2" x="3096.54" y="235.01" width="12.84" height="49.49"/><rect class="cls-2" x="3077.27" y="203.2" width="14.99" height="12.37"/><rect class="cls-2" x="3077.27" y="171.39" width="14.99" height="14.14"/><rect class="cls-2" x="3075.13" y="141.34" width="14.99" height="12.37"/><polygon class="cls-3" points="3049.44 235.01 3040.88 215.57 3469.03 215.57 3458.33 233.25 3049.44 235.01"/><path class="cls-3" d="M3075.13,203.2s-51.38,1.77-21.4-15.91l400.32-1.76s27.83,8.83,0,17.67Z"/><path class="cls-3" d="M3075.13,171.39s-45,5.3-25.69-14.14c0,0,2.14-1.77,21.41-1.77h385.34s12.84,0,10.7,12.37c0,0-2.14,7.07-12.84,3.54Z"/><path class="cls-3" d="M3075.13,139.57s-32.11,5.3-30-5.3,6.42-10.6,10.71-10.6h393.9s21.4,0,17.12,10.6-17.12,7.07-17.12,7.07Z"/><rect class="cls-4" x="500" y="-0.5" width="500" height="351"/><rect class="cls-2" x="922.96" y="202.22" width="15.69" height="13.02"/><rect class="cls-2" x="922.96" y="170.61" width="15.69" height="14.88"/><rect class="cls-3" x="577.75" y="114.83" width="15.69" height="7.44"/><rect class="cls-2" x="922.94" y="235.01" width="12.84" height="58.32"/><polygon class="cls-2" points="914.37 282.73 907.95 282.73 905.81 235.01 914.37 235.01 914.37 282.73"/><rect class="cls-2" x="922.94" y="139.57" width="14.99" height="15.91"/><rect class="cls-2" x="922.94" y="114.83" width="14.99" height="7.07"/><rect class="cls-2" x="578.27" y="235.01" width="12.84" height="58.32"/><rect class="cls-2" x="597.54" y="235.01" width="12.84" height="49.49"/><rect class="cls-2" x="578.27" y="203.2" width="14.99" height="12.37"/><rect class="cls-2" x="578.27" y="171.39" width="14.99" height="14.14"/><rect class="cls-2" x="576.13" y="141.34" width="14.99" height="12.37"/><polygon class="cls-3" points="550.44 235.01 541.88 215.57 970.03 215.57 959.33 233.25 550.44 235.01"/><path class="cls-3" d="M576.13,203.2s-51.38,1.77-21.4-15.91l400.32-1.76s27.83,8.83,0,17.67Z"/><path class="cls-3" d="M576.13,171.39s-45,5.3-25.69-14.14c0,0,2.14-1.77,21.41-1.77H957.19s12.84,0,10.7,12.37c0,0-2.14,7.07-12.84,3.54Z"/><path class="cls-3" d="M576.13,139.57s-32.11,5.3-30-5.3,6.42-10.6,10.71-10.6h393.9s21.4,0,17.12,10.6-17.12,7.07-17.12,7.07Z"/><rect class="cls-4" x="1500" y="-0.5" width="500" height="351"/><rect class="cls-2" x="1922.96" y="202.22" width="15.69" height="13.02"/><rect class="cls-2" x="1922.96" y="170.61" width="15.69" height="14.88"/><rect class="cls-3" x="1577.75" y="114.83" width="15.69" height="7.44"/><rect class="cls-2" x="1922.94" y="235.01" width="12.84" height="58.32"/><polygon class="cls-2" points="1914.37 282.73 1907.95 282.73 1905.81 235.01 1914.37 235.01 1914.37 282.73"/><rect class="cls-2" x="1922.94" y="139.57" width="14.99" height="15.91"/><rect class="cls-2" x="1922.94" y="114.83" width="14.99" height="7.07"/><rect class="cls-2" x="1578.27" y="235.01" width="12.84" height="58.32"/><rect class="cls-2" x="1597.54" y="235.01" width="12.84" height="49.49"/><rect class="cls-2" x="1578.27" y="203.2" width="14.99" height="12.37"/><rect class="cls-2" x="1578.27" y="171.39" width="14.99" height="14.14"/><rect class="cls-2" x="1576.13" y="141.34" width="14.99" height="12.37"/><polygon class="cls-3" points="1550.44 235.01 1541.88 215.57 1970.03 215.57 1959.33 233.25 1550.44 235.01"/><path class="cls-3" d="M1576.13,203.2s-51.38,1.77-21.4-15.91l400.32-1.76s27.83,8.83,0,17.67Z"/><path class="cls-3" d="M1576.13,171.39s-45,5.3-25.69-14.14c0,0,2.14-1.77,21.41-1.77h385.34s12.84,0,10.7,12.37c0,0-2.14,7.07-12.84,3.54Z"/><path class="cls-3" d="M1576.13,139.57s-32.11,5.3-30-5.3,6.42-10.6,10.71-10.6h393.9s21.4,0,17.12,10.6-17.12,7.07-17.12,7.07Z"/><rect class="cls-4" x="2500" y="-0.5" width="500" height="351"/><rect class="cls-2" x="2922.96" y="202.22" width="15.69" height="13.02"/><rect class="cls-2" x="2922.96" y="170.61" width="15.69" height="14.88"/><rect class="cls-3" x="2577.75" y="114.83" width="15.69" height="7.44"/><rect class="cls-2" x="2922.94" y="235.01" width="12.84" height="58.32"/><polygon class="cls-2" points="2914.37 282.73 2907.95 282.73 2905.81 235.01 2914.37 235.01 2914.37 282.73"/><rect class="cls-2" x="2922.94" y="139.57" width="14.99" height="15.91"/><rect class="cls-2" x="2922.94" y="114.83" width="14.99" height="7.07"/><rect class="cls-2" x="2578.27" y="235.01" width="12.84" height="58.32"/><rect class="cls-2" x="2597.54" y="235.01" width="12.84" height="49.49"/><rect class="cls-2" x="2578.27" y="203.2" width="14.99" height="12.37"/><rect class="cls-2" x="2578.27" y="171.39" width="14.99" height="14.14"/><rect class="cls-2" x="2576.13" y="141.34" width="14.99" height="12.37"/><polygon class="cls-3" points="2550.44 235.01 2541.88 215.57 2970.03 215.57 2959.33 233.25 2550.44 235.01"/><path class="cls-3" d="M2576.13,203.2s-51.38,1.77-21.4-15.91l400.32-1.76s27.83,8.83,0,17.67Z"/><path class="cls-3" d="M2576.13,171.39s-45,5.3-25.69-14.14c0,0,2.14-1.77,21.41-1.77h385.34s12.84,0,10.7,12.37c0,0-2.14,7.07-12.84,3.54Z"/><path class="cls-3" d="M2576.13,139.57s-32.11,5.3-30-5.3,6.42-10.6,10.71-10.6h393.9s21.4,0,17.12,10.6-17.12,7.07-17.12,7.07Z"/><rect class="cls-4" x="3499" y="-1.5" width="500" height="351"/><rect class="cls-2" x="3921.96" y="201.22" width="15.69" height="13.02"/><rect class="cls-2" x="3921.96" y="169.61" width="15.69" height="14.88"/><rect class="cls-3" x="3576.75" y="113.83" width="15.69" height="7.44"/><rect class="cls-2" x="3921.94" y="234.01" width="12.84" height="58.32"/><polygon class="cls-2" points="3913.37 281.73 3906.95 281.73 3904.81 234.01 3913.37 234.01 3913.37 281.73"/><rect class="cls-2" x="3921.94" y="138.57" width="14.99" height="15.91"/><rect class="cls-2" x="3921.94" y="113.83" width="14.99" height="7.07"/><rect class="cls-2" x="3577.27" y="234.01" width="12.84" height="58.32"/><rect class="cls-2" x="3596.54" y="234.01" width="12.84" height="49.49"/><rect class="cls-2" x="3577.27" y="202.2" width="14.99" height="12.37"/><rect class="cls-2" x="3577.27" y="170.39" width="14.99" height="14.14"/><rect class="cls-2" x="3575.13" y="140.34" width="14.99" height="12.37"/><polygon class="cls-3" points="3549.44 234.01 3540.88 214.57 3969.03 214.57 3958.33 232.25 3549.44 234.01"/><path class="cls-3" d="M3575.13,202.2s-51.38,1.77-21.4-15.91l400.32-1.76s27.83,8.83,0,17.67Z"/><path class="cls-3" d="M3575.13,170.39s-45,5.3-25.69-14.14c0,0,2.14-1.77,21.41-1.77h385.34s12.84,0,10.7,12.37c0,0-2.14,7.07-12.84,3.54Z"/><path class="cls-3" d="M3575.13,138.57s-32.11,5.3-30-5.3,6.42-10.6,10.71-10.6h393.9s21.4,0,17.12,10.6-17.12,7.07-17.12,7.07Z"/></g><g id="Layer_1" data-name="Layer 1"><g id="_1" data-name="1"><path id="krop" class="cls-5" d="M312.18,178.48S297.85,200,315.77,196.4,400,192.22,400,192.22s15.53,0,9.55-17.92-31.06-69.88-31.06-69.88l-44.8.59Z"/><path id="hat" class="cls-6" d="M330.1,43.49h47.19s6-17.92-13.74-14.93C363.55,28.56,324.72,10.64,330.1,43.49Z"/><g id="sløjfe"><ellipse class="cls-7" cx="371.65" cy="32.22" rx="3.46" ry="3.12" transform="translate(149.79 332.12) rotate(-58.46)"/><polygon class="cls-7" points="382.77 34.99 378.25 42.36 370.32 31.4 382.77 34.99"/><polygon class="cls-7" points="364.14 23.56 372.98 33.04 359.62 30.92 364.14 23.56"/></g><g id="butterfly"><ellipse cx="357.44" cy="107.95" rx="3.12" ry="3.46" transform="translate(-1.53 5.21) rotate(-0.83)"/><polygon points="368.32 104.34 368.45 112.98 355.88 107.97 368.32 104.34"/><polygon points="346.46 104.65 359.01 107.93 346.59 113.3 346.46 104.65"/></g><rect id="telefon" class="cls-8" x="352.2" y="121.74" width="14.34" height="29.27" rx="3.2" ry="3.2"/><rect id="hoved" class="cls-9" x="304.12" y="43.19" width="100.35" height="61.52" rx="12" ry="12"/><ellipse class="cls-10" cx="376.39" cy="62.01" rx="9.86" ry="10.15"/><ellipse class="cls-11" cx="375.2" cy="64.99" rx="6.27" ry="5.97"/><path class="cls-12" d="M337.27,85.9h24.49s4.78-.6,6.57,5.38"/><ellipse class="cls-10" cx="328.61" cy="62.01" rx="9.86" ry="10.15"/><ellipse class="cls-13" cx="331" cy="65.29" rx="5.67" ry="5.08"/><g id="h_ben" data-name="h ben"><path id="h_ben-2" data-name="h ben" class="cls-9" d="M382.07,191.33h9.55s4.78,25.08-7.76,24.48a91.44,91.44,0,0,0-22.7,1.8s-7.17-1.2-5.37,17.92,0,41.21,0,41.21H348l-1.19-54.35s1.79-8.37,9-12.55,23.29-2.39,23.29-2.39S385.65,208.05,382.07,191.33Z"/><path id="h_fod" data-name="h fod" d="M356.38,276.44H348v8.36s-17.92-10.15-17.92,9l26.28-1.19Z"/></g><path id="v_ben" data-name="v ben" class="cls-9" d="M338.46,192.52H348s4.78,25.09-7.77,24.49a91.05,91.05,0,0,0-22.69,1.79s-7.17-1.19-5.38,17.92,0,41.22,0,41.22h-7.76l-1.2-54.36s1.79-8.36,9-12.54,23.3-2.39,23.3-2.39S342.05,209.24,338.46,192.52Z"/><path id="v_fod" data-name="v fod" class="cls-14" d="M312.18,277.64h-8.36V286s-17.92-10.16-17.92,9l26.28-1.2Z"/></g><path class="cls-9" d="M327,133.2l6,22.93c.68,2.57,4.62,1.28,3.94-1.29l-6.06-22.93c-.68-2.57-4.61-1.29-3.93,1.29Z"/><path class="cls-9" d="M335.9,157l18.4-19.79c1.62-1.74-.89-4.43-2.5-2.69l-18.4,19.79c-1.62,1.73.89,4.43,2.5,2.69Z"/><path class="cls-9" d="M389.47,131l-4.89,21.61c-.55,2.43-4.27,1.36-3.72-1.07l4.89-21.61c.55-2.43,4.27-1.36,3.72,1.07Z"/><path class="cls-9" d="M381.73,153.55l-17.46-16.12c-1.53-1.41.84-3.61,2.37-2.19l17.46,16.12c1.53,1.42-.84,3.61-2.37,2.19Z"/><g id="_1-2" data-name="1"><path id="krop-2" data-name="krop" class="cls-5" d="M1312.18,178.48s-14.33,21.51,3.59,17.92,84.22-4.18,84.22-4.18,15.53,0,9.55-17.92-31.06-69.88-31.06-69.88l-44.8.59Z"/><path id="hat-2" data-name="hat" class="cls-6" d="M1330.1,43.49h47.19s6-17.92-13.74-14.93C1363.55,28.56,1324.72,10.64,1330.1,43.49Z"/><g id="sløjfe-2" data-name="sløjfe"><ellipse class="cls-7" cx="1371.65" cy="32.22" rx="3.46" ry="3.12" transform="translate(626.72 1184.41) rotate(-58.46)"/><polygon class="cls-7" points="1382.77 34.99 1378.25 42.36 1370.32 31.4 1382.77 34.99"/><polygon class="cls-7" points="1364.14 23.56 1372.98 33.04 1359.62 30.92 1364.14 23.56"/></g><g id="butterfly-2" data-name="butterfly"><ellipse cx="1357.44" cy="107.95" rx="3.12" ry="3.46" transform="translate(-1.43 19.77) rotate(-0.83)"/><polygon points="1368.33 104.34 1368.45 112.98 1355.88 107.97 1368.33 104.34"/><polygon points="1346.46 104.65 1359.01 107.93 1346.59 113.3 1346.46 104.65"/></g><rect id="telefon-2" data-name="telefon" class="cls-8" x="1352.2" y="121.74" width="14.34" height="29.27" rx="3.2" ry="3.2"/><rect id="hoved-2" data-name="hoved" class="cls-9" x="1304.12" y="43.19" width="100.35" height="61.52" rx="12" ry="12"/><g id="h_ben-3" data-name="h ben"><path id="h_ben-4" data-name="h ben" class="cls-9" d="M1382.07,191.33h9.55s4.78,25.08-7.76,24.48a91.44,91.44,0,0,0-22.7,1.8s-7.17-1.2-5.37,17.92,0,41.21,0,41.21H1348l-1.19-54.35s1.79-8.37,9-12.55,23.29-2.39,23.29-2.39S1385.65,208.05,1382.07,191.33Z"/><path id="h_fod-2" data-name="h fod" d="M1356.38,276.44H1348v8.36s-17.92-10.15-17.92,9l26.28-1.19Z"/></g><path id="v_ben-2" data-name="v ben" class="cls-9" d="M1338.46,192.52H1348s4.78,25.09-7.77,24.49a91.05,91.05,0,0,0-22.69,1.79s-7.17-1.19-5.38,17.92,0,41.22,0,41.22h-7.76l-1.2-54.36s1.79-8.36,9-12.54,23.3-2.39,23.3-2.39S1342.05,209.24,1338.46,192.52Z"/><path id="v_fod-2" data-name="v fod" class="cls-14" d="M1312.18,277.64h-8.36V286s-17.92-10.16-17.92,9l26.28-1.2Z"/></g><path class="cls-9" d="M1327,133.2l6,22.93c.68,2.57,4.62,1.28,3.94-1.29l-6.06-22.93c-.68-2.57-4.61-1.29-3.93,1.29Z"/><path class="cls-9" d="M1335.9,157l18.4-19.79c1.62-1.74-.89-4.43-2.5-2.69l-18.4,19.79c-1.62,1.73.89,4.43,2.5,2.69Z"/><path class="cls-9" d="M1389.47,131l-4.89,21.61c-.55,2.43-4.27,1.36-3.72-1.07l4.89-21.61c.55-2.43,4.27-1.36,3.72,1.07Z"/><path class="cls-9" d="M1381.73,153.55l-17.46-16.12c-1.53-1.41.84-3.61,2.37-2.19l17.46,16.12c1.53,1.42-.84,3.61-2.37,2.19Z"/><g id="_1-3" data-name="1"><path id="krop-3" data-name="krop" class="cls-5" d="M2312.18,178.48s-14.33,21.51,3.59,17.92,84.22-4.18,84.22-4.18,15.53,0,9.55-17.92-31.06-69.88-31.06-69.88l-44.8.59Z"/><path id="hat-3" data-name="hat" class="cls-6" d="M2330.1,43.49h47.19s6-17.92-13.74-14.93C2363.55,28.56,2324.72,10.64,2330.1,43.49Z"/><g id="sløjfe-3" data-name="sløjfe"><ellipse class="cls-7" cx="2371.65" cy="32.22" rx="3.46" ry="3.12" transform="translate(1103.65 2036.7) rotate(-58.46)"/><polygon class="cls-7" points="2382.77 34.99 2378.25 42.36 2370.32 31.4 2382.77 34.99"/><polygon class="cls-7" points="2364.14 23.56 2372.98 33.04 2359.62 30.92 2364.14 23.56"/></g><g id="butterfly-3" data-name="butterfly"><ellipse cx="2357.44" cy="107.95" rx="3.12" ry="3.46" transform="translate(-1.32 34.32) rotate(-0.83)"/><polygon points="2368.32 104.34 2368.45 112.98 2355.88 107.97 2368.32 104.34"/><polygon points="2346.46 104.65 2359.01 107.93 2346.59 113.3 2346.46 104.65"/></g><rect id="telefon-3" data-name="telefon" class="cls-8" x="2352.2" y="121.74" width="14.34" height="29.27" rx="3.2" ry="3.2"/><rect id="hoved-3" data-name="hoved" class="cls-9" x="2304.12" y="43.19" width="100.35" height="61.52" rx="12" ry="12"/><g id="h_ben-5" data-name="h ben"><path id="h_ben-6" data-name="h ben" class="cls-9" d="M2382.07,191.33h9.55s4.78,25.08-7.76,24.48a91.44,91.44,0,0,0-22.7,1.8s-7.17-1.2-5.37,17.92,0,41.21,0,41.21H2348l-1.19-54.35s1.79-8.37,9-12.55,23.29-2.39,23.29-2.39S2385.65,208.05,2382.07,191.33Z"/><path id="h_fod-3" data-name="h fod" d="M2356.38,276.44H2348v8.36s-17.92-10.15-17.92,9l26.28-1.19Z"/></g><path id="v_ben-3" data-name="v ben" class="cls-9" d="M2338.46,192.52H2348s4.78,25.09-7.77,24.49a91.05,91.05,0,0,0-22.69,1.79s-7.17-1.19-5.38,17.92,0,41.22,0,41.22h-7.76l-1.2-54.36s1.79-8.36,9-12.54,23.3-2.39,23.3-2.39S2342.05,209.24,2338.46,192.52Z"/><path id="v_fod-3" data-name="v fod" class="cls-14" d="M2312.18,277.64h-8.36V286s-17.92-10.16-17.92,9l26.28-1.2Z"/></g><path class="cls-9" d="M2327,133.2l6.05,22.93c.68,2.57,4.62,1.28,3.94-1.29l-6.06-22.93c-.68-2.57-4.61-1.29-3.93,1.29Z"/><path class="cls-9" d="M2335.9,157l18.4-19.79c1.62-1.74-.89-4.43-2.5-2.69l-18.4,19.79c-1.62,1.73.89,4.43,2.5,2.69Z"/><path class="cls-9" d="M2389.47,131l-4.89,21.61c-.55,2.43-4.27,1.36-3.72-1.07l4.89-21.61c.55-2.43,4.27-1.36,3.72,1.07Z"/><path class="cls-9" d="M2381.73,153.55l-17.46-16.12c-1.53-1.41.84-3.61,2.37-2.19l17.46,16.12c1.53,1.42-.84,3.61-2.37,2.19Z"/><g id="_1-4" data-name="1"><path id="krop-4" data-name="krop" class="cls-5" d="M3311.18,178.48s-14.33,21.51,3.59,17.92,84.22-4.18,84.22-4.18,15.53,0,9.55-17.92-31.06-69.88-31.06-69.88l-44.8.59Z"/><path id="hat-4" data-name="hat" class="cls-6" d="M3329.1,43.49h47.19s6-17.92-13.74-14.93C3362.55,28.56,3323.72,10.64,3329.1,43.49Z"/><g id="sløjfe-4" data-name="sløjfe"><ellipse class="cls-7" cx="3370.65" cy="32.22" rx="3.46" ry="3.12" transform="translate(1580.11 2888.14) rotate(-58.46)"/><polygon class="cls-7" points="3381.77 34.99 3377.25 42.36 3369.32 31.4 3381.77 34.99"/><polygon class="cls-7" points="3363.14 23.56 3371.98 33.04 3358.62 30.92 3363.14 23.56"/></g><g id="butterfly-4" data-name="butterfly"><ellipse cx="3356.44" cy="107.95" rx="3.12" ry="3.46" transform="translate(-1.22 48.86) rotate(-0.83)"/><polygon points="3367.32 104.34 3367.45 112.98 3354.88 107.97 3367.32 104.34"/><polygon points="3345.46 104.65 3358.01 107.93 3345.59 113.3 3345.46 104.65"/></g><rect id="telefon-4" data-name="telefon" class="cls-8" x="3351.2" y="121.74" width="14.34" height="29.27" rx="3.2" ry="3.2"/><rect id="hoved-4" data-name="hoved" class="cls-9" x="3303.12" y="43.19" width="100.35" height="61.52" rx="12" ry="12"/><g id="h_ben-7" data-name="h ben"><path id="h_ben-8" data-name="h ben" class="cls-9" d="M3381.07,191.33h9.55s4.78,25.08-7.76,24.48a91.44,91.44,0,0,0-22.7,1.8s-7.17-1.2-5.37,17.92,0,41.21,0,41.21H3347l-1.19-54.35s1.79-8.37,9-12.55,23.29-2.39,23.29-2.39S3384.65,208.05,3381.07,191.33Z"/><path id="h_fod-4" data-name="h fod" d="M3355.38,276.44H3347v8.36s-17.92-10.15-17.92,9l26.28-1.19Z"/></g><path id="v_ben-4" data-name="v ben" class="cls-9" d="M3337.46,192.52H3347s4.78,25.09-7.77,24.49a91.05,91.05,0,0,0-22.69,1.79s-7.17-1.19-5.38,17.92,0,41.22,0,41.22h-7.76l-1.2-54.36s1.79-8.36,9-12.54,23.3-2.39,23.3-2.39S3341.05,209.24,3337.46,192.52Z"/><path id="v_fod-4" data-name="v fod" class="cls-14" d="M3311.18,277.64h-8.36V286s-17.92-10.16-17.92,9l26.28-1.2Z"/></g><path class="cls-9" d="M3326,133.2l6.05,22.93c.68,2.57,4.62,1.28,3.94-1.29l-6.06-22.93c-.68-2.57-4.61-1.29-3.93,1.29Z"/><path class="cls-9" d="M3334.9,157l18.4-19.79c1.62-1.74-.89-4.43-2.5-2.69l-18.4,19.79c-1.62,1.73.89,4.43,2.5,2.69Z"/><path class="cls-9" d="M3388.47,131l-4.89,21.61c-.55,2.43-4.27,1.36-3.72-1.07l4.89-21.61c.55-2.43,4.27-1.36,3.72,1.07Z"/><path class="cls-9" d="M3380.73,153.55l-17.46-16.12c-1.53-1.41.84-3.61,2.37-2.19l17.46,16.12c1.53,1.42-.84,3.61-2.37,2.19Z"/><g id="_1-5" data-name="1"><path id="krop-5" data-name="krop" class="cls-5" d="M812.18,178.48S797.85,200,815.77,196.4,900,192.22,900,192.22s15.53,0,9.55-17.92-31.06-69.88-31.06-69.88l-44.8.59Z"/><path id="hat-5" data-name="hat" class="cls-6" d="M830.1,43.49h47.19s6-17.92-13.74-14.93C863.55,28.56,824.72,10.64,830.1,43.49Z"/><g id="sløjfe-5" data-name="sløjfe"><ellipse class="cls-7" cx="871.65" cy="32.22" rx="3.46" ry="3.12" transform="translate(388.25 758.26) rotate(-58.46)"/><polygon class="cls-7" points="882.77 34.99 878.25 42.36 870.32 31.4 882.77 34.99"/><polygon class="cls-7" points="864.14 23.56 872.98 33.04 859.62 30.92 864.14 23.56"/></g><g id="butterfly-5" data-name="butterfly"><ellipse cx="857.44" cy="107.95" rx="3.12" ry="3.46" transform="translate(-1.48 12.49) rotate(-0.83)"/><polygon points="868.33 104.34 868.45 112.98 855.88 107.97 868.33 104.34"/><polygon points="846.46 104.65 859.01 107.93 846.59 113.3 846.46 104.65"/></g><rect id="telefon-5" data-name="telefon" class="cls-8" x="852.2" y="121.74" width="14.34" height="29.27" rx="3.2" ry="3.2"/><rect id="hoved-5" data-name="hoved" class="cls-9" x="804.12" y="43.19" width="100.35" height="61.52" rx="12" ry="12"/><g id="skriver"><ellipse class="cls-10" cx="876.39" cy="62.01" rx="9.86" ry="10.15"/><ellipse class="cls-11" cx="875.2" cy="64.99" rx="6.27" ry="5.97"/><path class="cls-12" d="M837.27,85.9h24.49s4.78-.6,6.57,5.38"/><ellipse class="cls-10" cx="828.61" cy="62.01" rx="9.86" ry="10.15"/><ellipse class="cls-13" cx="831" cy="65.29" rx="5.67" ry="5.08"/><g id="h_ben-9" data-name="h ben"><path id="h_ben-10" data-name="h ben" class="cls-9" d="M882.07,191.33h9.55s4.78,25.08-7.76,24.48a91.44,91.44,0,0,0-22.7,1.8s-7.17-1.2-5.37,17.92,0,41.21,0,41.21H848l-1.19-54.35s1.79-8.37,9-12.55,23.29-2.39,23.29-2.39S885.65,208.05,882.07,191.33Z"/><path id="h_fod-5" data-name="h fod" d="M856.38,276.44H848v8.36s-17.92-10.15-17.92,9l26.28-1.19Z"/></g><path id="v_ben-5" data-name="v ben" class="cls-9" d="M838.46,192.52H848s4.78,25.09-7.77,24.49a91.05,91.05,0,0,0-22.69,1.79s-7.17-1.19-5.38,17.92,0,41.22,0,41.22h-7.76l-1.2-54.36s1.79-8.36,9-12.54,23.3-2.39,23.3-2.39S842.05,209.24,838.46,192.52Z"/><path id="v_fod-5" data-name="v fod" class="cls-14" d="M812.18,277.64h-8.36V286s-17.92-10.16-17.92,9l26.28-1.2Z"/></g></g><path class="cls-9" d="M827,133.2l6,22.93c.68,2.57,4.62,1.28,3.94-1.29l-6.06-22.93c-.68-2.57-4.61-1.29-3.93,1.29Z"/><path class="cls-9" d="M835.57,157.22,856.8,140.5c1.86-1.47-.2-4.51-2.06-3.05l-21.23,16.73c-1.86,1.46.2,4.51,2.06,3Z"/><path class="cls-9" d="M889.61,131.31l-8.17,20.59c-.92,2.32-4.43.68-3.51-1.63l8.17-20.6c.91-2.31,4.42-.68,3.51,1.64Z"/><path class="cls-9" d="M878.6,152.6l-17.05-16.55c-1.5-1.45.93-3.59,2.42-2.14L881,150.46c1.49,1.45-.93,3.59-2.43,2.14Z"/><g id="_1-6" data-name="1"><path id="krop-6" data-name="krop" class="cls-5" d="M1812.18,178.48s-14.33,21.51,3.59,17.92,84.22-4.18,84.22-4.18,15.53,0,9.55-17.92-31.06-69.88-31.06-69.88l-44.8.59Z"/><path id="hat-6" data-name="hat" class="cls-6" d="M1830.1,43.49h47.19s6-17.92-13.74-14.93C1863.55,28.56,1824.72,10.64,1830.1,43.49Z"/><g id="sløjfe-6" data-name="sløjfe"><ellipse class="cls-7" cx="1871.65" cy="32.22" rx="3.46" ry="3.12" transform="translate(865.19 1610.55) rotate(-58.46)"/><polygon class="cls-7" points="1882.77 34.99 1878.25 42.36 1870.32 31.4 1882.77 34.99"/><polygon class="cls-7" points="1864.14 23.56 1872.98 33.04 1859.62 30.92 1864.14 23.56"/></g><g id="butterfly-6" data-name="butterfly"><ellipse cx="1857.44" cy="107.95" rx="3.12" ry="3.46" transform="translate(-1.37 27.04) rotate(-0.83)"/><polygon points="1868.33 104.34 1868.45 112.98 1855.88 107.97 1868.33 104.34"/><polygon points="1846.46 104.65 1859.01 107.93 1846.59 113.3 1846.46 104.65"/></g><rect id="telefon-6" data-name="telefon" class="cls-8" x="1852.2" y="121.74" width="14.34" height="29.27" rx="3.2" ry="3.2"/><rect id="hoved-6" data-name="hoved" class="cls-9" x="1804.12" y="43.19" width="100.35" height="61.52" rx="12" ry="12"/><g id="skriver-2" data-name="skriver"><ellipse class="cls-10" cx="1876.39" cy="62.01" rx="9.86" ry="10.15"/><ellipse class="cls-11" cx="1875.2" cy="64.99" rx="6.27" ry="5.97"/><path class="cls-12" d="M1837.27,85.9h24.49s4.78-.6,6.57,5.38"/><ellipse class="cls-10" cx="1828.61" cy="62.01" rx="9.86" ry="10.15"/><ellipse class="cls-13" cx="1831" cy="65.29" rx="5.67" ry="5.08"/><g id="h_ben-11" data-name="h ben"><path id="h_ben-12" data-name="h ben" class="cls-9" d="M1882.07,191.33h9.55s4.78,25.08-7.76,24.48a91.44,91.44,0,0,0-22.7,1.8s-7.17-1.2-5.37,17.92,0,41.21,0,41.21H1848l-1.19-54.35s1.79-8.37,9-12.55,23.29-2.39,23.29-2.39S1885.65,208.05,1882.07,191.33Z"/><path id="h_fod-6" data-name="h fod" d="M1856.38,276.44H1848v8.36s-17.92-10.15-17.92,9l26.28-1.19Z"/></g><path id="v_ben-6" data-name="v ben" class="cls-9" d="M1838.46,192.52H1848s4.78,25.09-7.77,24.49a91.05,91.05,0,0,0-22.69,1.79s-7.17-1.19-5.38,17.92,0,41.22,0,41.22h-7.76l-1.2-54.36s1.79-8.36,9-12.54,23.3-2.39,23.3-2.39S1842.05,209.24,1838.46,192.52Z"/><path id="v_fod-6" data-name="v fod" class="cls-14" d="M1812.18,277.64h-8.36V286s-17.92-10.16-17.92,9l26.28-1.2Z"/></g></g><path class="cls-9" d="M1827,133.2l6,22.93c.68,2.57,4.62,1.28,3.94-1.29l-6.06-22.93c-.68-2.57-4.61-1.29-3.93,1.29Z"/><path class="cls-9" d="M1835.57,157.22l21.23-16.72c1.86-1.47-.2-4.51-2.06-3.05l-21.23,16.73c-1.86,1.46.2,4.51,2.06,3Z"/><path class="cls-9" d="M1889.61,131.31l-8.17,20.59c-.92,2.32-4.43.68-3.51-1.63l8.17-20.6c.91-2.31,4.42-.68,3.51,1.64Z"/><path class="cls-9" d="M1878.6,152.6l-17-16.55c-1.5-1.45.93-3.59,2.42-2.14L1881,150.46c1.49,1.45-.93,3.59-2.43,2.14Z"/><g id="_1-7" data-name="1"><path id="krop-7" data-name="krop" class="cls-5" d="M2812.18,178.48s-14.33,21.51,3.59,17.92,84.22-4.18,84.22-4.18,15.53,0,9.55-17.92-31.06-69.88-31.06-69.88l-44.8.59Z"/><path id="hat-7" data-name="hat" class="cls-6" d="M2830.1,43.49h47.19s6-17.92-13.74-14.93C2863.55,28.56,2824.72,10.64,2830.1,43.49Z"/><g id="sløjfe-7" data-name="sløjfe"><ellipse class="cls-7" cx="2871.65" cy="32.22" rx="3.46" ry="3.12" transform="translate(1342.12 2462.85) rotate(-58.46)"/><polygon class="cls-7" points="2882.77 34.99 2878.25 42.36 2870.32 31.4 2882.77 34.99"/><polygon class="cls-7" points="2864.14 23.56 2872.98 33.04 2859.62 30.92 2864.14 23.56"/></g><g id="butterfly-7" data-name="butterfly"><ellipse cx="2857.44" cy="107.95" rx="3.12" ry="3.46" transform="translate(-1.27 41.6) rotate(-0.83)"/><polygon points="2868.32 104.34 2868.45 112.98 2855.88 107.97 2868.32 104.34"/><polygon points="2846.46 104.65 2859.01 107.93 2846.59 113.3 2846.46 104.65"/></g><rect id="telefon-7" data-name="telefon" class="cls-8" x="2852.2" y="121.74" width="14.34" height="29.27" rx="3.2" ry="3.2"/><rect id="hoved-7" data-name="hoved" class="cls-9" x="2804.12" y="43.19" width="100.35" height="61.52" rx="12" ry="12"/><g id="h_ben-13" data-name="h ben"><path id="h_ben-14" data-name="h ben" class="cls-9" d="M2882.07,191.33h9.55s4.78,25.08-7.76,24.48a91.44,91.44,0,0,0-22.7,1.8s-7.17-1.2-5.37,17.92,0,41.21,0,41.21H2848l-1.19-54.35s1.79-8.37,9-12.55,23.29-2.39,23.29-2.39S2885.65,208.05,2882.07,191.33Z"/><path id="h_fod-7" data-name="h fod" d="M2856.38,276.44H2848v8.36s-17.92-10.15-17.92,9l26.28-1.19Z"/></g><path id="v_ben-7" data-name="v ben" class="cls-9" d="M2838.46,192.52H2848s4.78,25.09-7.77,24.49a91.05,91.05,0,0,0-22.69,1.79s-7.17-1.19-5.38,17.92,0,41.22,0,41.22h-7.76l-1.2-54.36s1.79-8.36,9-12.54,23.3-2.39,23.3-2.39S2842.05,209.24,2838.46,192.52Z"/><path id="v_fod-7" data-name="v fod" class="cls-14" d="M2812.18,277.64h-8.36V286s-17.92-10.16-17.92,9l26.28-1.2Z"/></g><path class="cls-9" d="M2827,133.2l6.05,22.93c.68,2.57,4.62,1.28,3.94-1.29l-6.06-22.93c-.68-2.57-4.61-1.29-3.93,1.29Z"/><path class="cls-9" d="M2835.57,157.22l21.23-16.72c1.86-1.47-.2-4.51-2.06-3.05l-21.23,16.73c-1.86,1.46.2,4.51,2.06,3Z"/><path class="cls-9" d="M2889.61,131.31l-8.17,20.59c-.92,2.32-4.43.68-3.51-1.63l8.17-20.6c.91-2.31,4.42-.68,3.51,1.64Z"/><path class="cls-9" d="M2878.6,152.6l-17-16.55c-1.5-1.45.93-3.59,2.42-2.14L2881,150.46c1.49,1.45-.93,3.59-2.43,2.14Z"/><g id="_1-8" data-name="1"><path id="krop-8" data-name="krop" class="cls-5" d="M3811.18,177.48s-14.33,21.51,3.59,17.92,84.22-4.18,84.22-4.18,15.53,0,9.55-17.92-31.06-69.88-31.06-69.88l-44.8.59Z"/><path id="hat-8" data-name="hat" class="cls-6" d="M3829.1,42.49h47.19s6-17.92-13.74-14.93C3862.55,27.56,3823.72,9.64,3829.1,42.49Z"/><g id="sløjfe-8" data-name="sløjfe"><ellipse class="cls-7" cx="3870.65" cy="31.22" rx="3.46" ry="3.12" transform="translate(1819.43 3313.81) rotate(-58.46)"/><polygon class="cls-7" points="3881.77 33.99 3877.25 41.36 3869.32 30.4 3881.77 33.99"/><polygon class="cls-7" points="3863.14 22.56 3871.98 32.04 3858.62 29.92 3863.14 22.56"/></g><g id="butterfly-8" data-name="butterfly"><ellipse cx="3856.44" cy="106.95" rx="3.12" ry="3.46" transform="translate(-1.15 56.14) rotate(-0.83)"/><polygon points="3867.32 103.34 3867.45 111.98 3854.88 106.97 3867.32 103.34"/><polygon points="3845.46 103.65 3858.01 106.93 3845.59 112.3 3845.46 103.65"/></g><rect id="telefon-8" data-name="telefon" class="cls-8" x="3851.2" y="120.74" width="14.34" height="29.27" rx="3.2" ry="3.2"/><rect id="hoved-8" data-name="hoved" class="cls-9" x="3803.12" y="42.19" width="100.35" height="61.52" rx="12" ry="12"/><g id="h_ben-15" data-name="h ben"><path id="h_ben-16" data-name="h ben" class="cls-9" d="M3881.07,190.33h9.55s4.78,25.08-7.76,24.48a91.44,91.44,0,0,0-22.7,1.8s-7.17-1.2-5.37,17.92,0,41.21,0,41.21H3847l-1.19-54.35s1.79-8.37,9-12.55,23.29-2.39,23.29-2.39S3884.65,207.05,3881.07,190.33Z"/><path id="h_fod-8" data-name="h fod" d="M3855.38,275.44H3847v8.36s-17.92-10.15-17.92,9l26.28-1.19Z"/></g><path id="v_ben-8" data-name="v ben" class="cls-9" d="M3837.46,191.52H3847s4.78,25.09-7.77,24.49a91.05,91.05,0,0,0-22.69,1.79s-7.17-1.19-5.38,17.92,0,41.22,0,41.22h-7.76l-1.2-54.36s1.79-8.36,9-12.54,23.3-2.39,23.3-2.39S3841.05,208.24,3837.46,191.52Z"/><path id="v_fod-8" data-name="v fod" class="cls-14" d="M3811.18,276.64h-8.36V285s-17.92-10.16-17.92,9l26.28-1.2Z"/></g><path class="cls-9" d="M3826,132.2l6.05,22.93c.68,2.57,4.62,1.28,3.94-1.29l-6.06-22.93c-.68-2.57-4.61-1.29-3.93,1.29Z"/><path class="cls-9" d="M3834.57,156.22l21.23-16.72c1.86-1.47-.2-4.51-2.06-3.05l-21.23,16.73c-1.86,1.46.2,4.51,2.06,3Z"/><path class="cls-9" d="M3888.61,130.31l-8.17,20.59c-.92,2.32-4.43.68-3.51-1.63l8.17-20.6c.91-2.31,4.42-.68,3.51,1.64Z"/><path class="cls-9" d="M3877.6,151.6l-17-16.55c-1.5-1.45.93-3.59,2.42-2.14L3880,149.46c1.49,1.45-.93,3.59-2.43,2.14Z"/></g><g id="Layer_4" data-name="Layer 4"><g id="Layer_3-2" data-name="Layer 3"><g id="hoved-2-2" data-name="hoved-2"><path class="cls-15" d="M118.8,175.81C119.23,174.3,202,58.59,170.88,29c-4.51-4.28-20.11-11.58-30.53-3.69-4.32,3.23-12.88,10.54-23.48,32.36,0,0-12.23-38.08-36.69-34.85C80.18,22.83,13.24,31.87,118.8,175.81Z"/><polygon class="cls-16" points="146.62 12.34 133.31 38.93 159.58 36.99 146.62 12.34"/><polygon class="cls-16" points="171.3 61.89 184.94 35.46 158.65 37.07 171.3 61.89"/><ellipse class="cls-16" cx="158.8" cy="36.8" rx="5.03" ry="5.05"/><polygon class="cls-16" points="47.74 37.34 64.48 61.91 75.53 37.94 47.74 37.34"/><polygon class="cls-16" points="102.92 39.74 86.5 14.96 75.14 38.79 102.92 39.74"/><ellipse class="cls-16" cx="74.98" cy="38.53" rx="5.03" ry="5.05"/></g><g id="ansigt-2"><ellipse class="cls-17" cx="99.97" cy="83.02" rx="19.79" ry="19.85"/><ellipse class="cls-17" cx="146.96" cy="83.02" rx="19.79" ry="19.85"/><ellipse cx="101.9" cy="89.47" rx="11.8" ry="11.83"/><ellipse cx="142.45" cy="88.83" rx="11.8" ry="11.83"/><line class="cls-18" x1="89.19" y1="104.16" x2="102.06" y2="106.1"/><line class="cls-18" x1="90.48" y1="105.45" x2="98.2" y2="106.74"/><line class="cls-18" x1="143.25" y1="106.1" x2="158.06" y2="103.51"/><line class="cls-18" x1="145.19" y1="107.39" x2="156.77" y2="104.81"/><path class="cls-12" d="M137.7,134.17H113.23s-9.65,1.94-5.14,8.4"/></g><path class="cls-19" d="M137.11,202.09c7.55,20.77,41.93-22,39.3,62.87-.08,2.38-5.61-.17-6.94-.51,2-88.87-36.56-24-39.75-65C129.48,196.56,135.59,198.05,137.11,202.09Z"/><path d="M168.87,263.43a17.64,17.64,0,0,1-.41,9.1c11.19-.29,22.15,2.17,33.38,1.18S172.49,263.39,168.87,263.43Z"/><path class="cls-19" d="M128.63,222.63a4.87,4.87,0,0,0-.62-.9C128.22,222,128.43,222.31,128.63,222.63Z"/><path class="cls-19" d="M134,220.87c-8-13.64-26.07-3.15-28.75-17.22-.86-4.23-6.65-6.67-6.9-3.78-2.33,28,19.54,9.88,28.47,23.48C128,219.88,131.19,220.53,134,220.87Z"/><path class="cls-19" d="M134,220.87c-1.89-1.12-5.27-4-6.72-3.5-2-.15-2.31,3.84-.46,6l.07.11a4.47,4.47,0,0,1,.56.94c3.63,6.66,4.6,19.8-.25,46,1.26.52,6.32,3.92,6.77,1.59C139.65,242.72,138.3,228.26,134,220.87Z"/><path d="M126.75,269.29a17.68,17.68,0,0,1-1.85,8.92c11.08,1.5,21.51,5.69,32.75,6.51S130.33,269.84,126.75,269.29Z"/><g id="krop-2-2" data-name="krop-2"><ellipse class="cls-20" cx="118.02" cy="186.06" rx="29.47" ry="17.83"/><path class="cls-21" d="M112.62,167.24a86.57,86.57,0,0,1,11.84,0l-6,7.6Z"/><polygon class="cls-21" points="118.02 174.87 113.16 179.15 118.02 201.99 122.89 179.15 118.02 174.87"/><path class="cls-22" d="M117.19,182.59h1.93a7.72,7.72,0,0,1,7.72,7.74v10.33a7.72,7.72,0,0,1-7.72,7.74h-1.93a7.72,7.72,0,0,1-7.72-7.74V190.33A7.72,7.72,0,0,1,117.19,182.59Z"/></g><path class="cls-19" d="M86.74,187.43c-.15-1,8.55-3.33,9.62-3.54.08,0-1.86-6.89-3.54-6.4-12.56,3.46-17.31,6.8-17.4,9.73C79.19,184.71,83,186.45,86.74,187.43Z"/><path class="cls-19" d="M107.36,193.35c-5.36.24-14.19-3.42-20.15-5.11-.3-.08-.44-.19-.45-.31-.62-2-4.38-3.09-6.55-3.33-1.58-.17-4,.76-4.73,2.44-.61,6.85,24.73,13,35.5,12C111.26,199.06,112.72,193.12,107.36,193.35Z"/><path class="cls-23" d="M110.41,199.73c-2.15.36-.85-6,.49-5.45C117.62,196.81,116,198.8,110.41,199.73Z"/><path class="cls-19" d="M143.42,176.72c-1.72-.39-3.78,6.95-3.66,6.94,1.32-.23,7.82,1.63,9.51,2.84,3.57,0,7.15.06,10.72,1.56C162.14,184.59,158.5,180.62,143.42,176.72Z"/><path class="cls-19" d="M149.2,185.91c.52.46.5.79-.4.84-7.65.44-15.87,3.24-21.79,2.67s-4.13,5.48-3.92,5.5c7.83,1.63,31.94-.35,36.59-6.27,1.29-2.42-2.72-4.68-4.45-5.08S148.5,180.79,149.2,185.91Z"/><path class="cls-23" d="M123.68,195.33c1.58.62,1.88-6.19.24-5.83C115.67,191.54,119.6,193.7,123.68,195.33Z"/></g><g id="Layer_3-3" data-name="Layer 3"><g id="hoved-2-3" data-name="hoved-2"><path class="cls-15" d="M1118.8,175.81c.43-1.51,83.16-117.22,52.08-146.8-4.51-4.28-20.11-11.58-30.53-3.69-4.32,3.23-12.88,10.54-23.48,32.36,0,0-12.23-38.08-36.69-34.85C1080.18,22.83,1013.24,31.87,1118.8,175.81Z"/><polygon class="cls-16" points="1146.62 12.34 1133.31 38.93 1159.58 36.99 1146.62 12.34"/><polygon class="cls-16" points="1171.3 61.89 1184.94 35.46 1158.65 37.07 1171.3 61.89"/><ellipse class="cls-16" cx="1158.8" cy="36.8" rx="5.03" ry="5.05"/><polygon class="cls-16" points="1047.74 37.34 1064.48 61.91 1075.53 37.94 1047.74 37.34"/><polygon class="cls-16" points="1102.92 39.74 1086.5 14.96 1075.14 38.79 1102.92 39.74"/><ellipse class="cls-16" cx="1074.98" cy="38.53" rx="5.03" ry="5.05"/></g><g id="ansigt-2-2" data-name="ansigt-2"><ellipse class="cls-17" cx="1099.97" cy="83.02" rx="19.79" ry="19.85"/><ellipse class="cls-17" cx="1146.96" cy="83.02" rx="19.79" ry="19.85"/><ellipse cx="1101.9" cy="89.47" rx="11.8" ry="11.83"/><ellipse cx="1142.45" cy="88.83" rx="11.8" ry="11.83"/><line class="cls-18" x1="1089.19" y1="104.16" x2="1102.06" y2="106.1"/><line class="cls-18" x1="1090.48" y1="105.45" x2="1098.2" y2="106.74"/><line class="cls-18" x1="1143.25" y1="106.1" x2="1158.06" y2="103.51"/><line class="cls-18" x1="1145.19" y1="107.39" x2="1156.77" y2="104.81"/><path class="cls-12" d="M1137.7,134.17h-24.47s-9.65,1.94-5.14,8.4"/></g><path class="cls-19" d="M1137.13,202.06c7.49,20.79,42-21.89,39.1,63-.08,2.37-5.61-.19-6.93-.53,2.24-88.86-36.49-24.12-39.56-65.15C1129.51,196.51,1135.62,198,1137.13,202.06Z"/><path d="M1168.7,263.49a17.75,17.75,0,0,1-.43,9.1c11.18-.25,22.13,2.24,33.37,1.28S1172.32,263.47,1168.7,263.49Z"/><path class="cls-19" d="M1128.71,222.49a4.19,4.19,0,0,0-.62-.89C1128.3,221.88,1128.51,222.18,1128.71,222.49Z"/><path class="cls-19" d="M1134.18,220.61c-8.08-13.57-26.09-2.94-28.89-17-.9-4.23-6.71-6.62-6.93-3.73-2.1,28,19.61,9.72,28.66,23.24C1128.15,219.66,1131.38,220.28,1134.18,220.61Z"/><path class="cls-19" d="M1134.18,220.61c-1.9-1.11-5.31-4-6.75-3.45-2-.13-2.27,3.86-.41,6a.76.76,0,0,0,.08.11,5,5,0,0,1,.56.94c3.69,6.63,4.77,19.76.14,46,1.27.51,6.35,3.87,6.79,1.54C1140,242.41,1138.56,228,1134.18,220.61Z"/><path d="M1127.35,269.08a17.62,17.62,0,0,1-1.78,8.94c11.1,1.41,21.56,5.5,32.81,6.23S1130.94,269.6,1127.35,269.08Z"/><g id="krop-2-3" data-name="krop-2"><ellipse class="cls-20" cx="1118.02" cy="186.06" rx="29.47" ry="17.83"/><path class="cls-21" d="M1112.62,167.24a86.57,86.57,0,0,1,11.84,0l-6,7.6Z"/><polygon class="cls-21" points="1118.02 174.87 1113.16 179.15 1118.02 201.99 1122.89 179.15 1118.02 174.87"/><path class="cls-22" d="M1117.19,182.59h1.93a7.72,7.72,0,0,1,7.72,7.74v10.33a7.72,7.72,0,0,1-7.72,7.74h-1.93a7.72,7.72,0,0,1-7.72-7.74V190.33A7.72,7.72,0,0,1,1117.19,182.59Z"/></g><path class="cls-19" d="M1086.74,187.43c-.15-1,8.55-3.33,9.62-3.54.08,0-1.86-6.89-3.54-6.4-12.56,3.46-17.31,6.8-17.4,9.73C1079.19,184.71,1083,186.45,1086.74,187.43Z"/><path class="cls-19" d="M1107.36,193.35c-5.36.24-14.19-3.42-20.15-5.11-.3-.08-.44-.19-.45-.31-.62-2-4.38-3.09-6.55-3.33-1.58-.17-4,.76-4.73,2.44-.61,6.85,24.73,13,35.5,12C1111.26,199.06,1112.72,193.12,1107.36,193.35Z"/><path class="cls-23" d="M1110.41,199.73c-2.15.36-.85-6,.49-5.45C1117.62,196.81,1116,198.8,1110.41,199.73Z"/><path class="cls-19" d="M1143.42,176.72c-1.72-.39-3.78,6.95-3.66,6.94,1.32-.23,7.82,1.63,9.51,2.84,3.57,0,7.15.06,10.72,1.56C1162.14,184.59,1158.5,180.62,1143.42,176.72Z"/><path class="cls-19" d="M1149.2,185.91c.52.46.5.79-.4.84-7.65.44-15.87,3.24-21.79,2.67s-4.13,5.48-3.92,5.5c7.83,1.63,31.94-.35,36.59-6.27,1.29-2.42-2.72-4.68-4.45-5.08S1148.5,180.79,1149.2,185.91Z"/><path class="cls-23" d="M1123.68,195.33c1.58.62,1.88-6.19.24-5.83C1115.67,191.54,1119.6,193.7,1123.68,195.33Z"/></g><g id="Layer_3-4" data-name="Layer 3"><g id="hoved-2-4" data-name="hoved-2"><path class="cls-15" d="M2118.8,175.81c.43-1.51,83.16-117.22,52.08-146.8-4.51-4.28-20.11-11.58-30.53-3.69-4.32,3.23-12.88,10.54-23.48,32.36,0,0-12.23-38.08-36.69-34.85C2080.18,22.83,2013.24,31.87,2118.8,175.81Z"/><polygon class="cls-16" points="2146.62 12.34 2133.31 38.93 2159.58 36.99 2146.62 12.34"/><polygon class="cls-16" points="2171.3 61.89 2184.94 35.46 2158.65 37.07 2171.3 61.89"/><ellipse class="cls-16" cx="2158.8" cy="36.8" rx="5.03" ry="5.05"/><polygon class="cls-16" points="2047.74 37.34 2064.48 61.91 2075.53 37.94 2047.74 37.34"/><polygon class="cls-16" points="2102.92 39.74 2086.5 14.96 2075.14 38.79 2102.92 39.74"/><ellipse class="cls-16" cx="2074.98" cy="38.53" rx="5.03" ry="5.05"/></g><path class="cls-19" d="M2137.4,202c7.2,20.9,42.3-21.29,38.22,63.54-.12,2.37-5.6-.28-6.92-.64,3.47-88.82-36.15-24.62-38.65-65.69C2129.86,196.35,2136,198,2137.4,202Z"/><path d="M2168.11,263.88a17.65,17.65,0,0,1-.56,9.09c11.19-.1,22.1,2.55,33.35,1.75S2171.73,263.91,2168.11,263.88Z"/><path class="cls-19" d="M2128.71,222.49a4.19,4.19,0,0,0-.62-.89C2128.3,221.88,2128.51,222.18,2128.71,222.49Z"/><path class="cls-19" d="M2134.46,220.29c-8.23-13.48-26.12-2.64-29.08-16.65-.94-4.21-6.79-6.54-7-3.64-1.78,28.06,19.72,9.49,28.92,22.9C2128.43,219.41,2131.66,220,2134.46,220.29Z"/><path class="cls-19" d="M2134.46,220.29c-1.91-1.09-5.35-3.94-6.79-3.37-2-.11-2.22,3.88-.34,6a.76.76,0,0,1,.08.11,4.65,4.65,0,0,1,.58.93c3.76,6.59,5,19.71.67,46,1.27.49,6.39,3.79,6.8,1.46C2140.56,242,2138.93,227.59,2134.46,220.29Z"/><path d="M2128.2,268.84a17.72,17.72,0,0,1-1.68,9c11.11,1.28,21.62,5.26,32.88,5.85S2131.78,269.31,2128.2,268.84Z"/><g id="krop-2-4" data-name="krop-2"><ellipse class="cls-20" cx="2118.02" cy="186.06" rx="29.47" ry="17.83"/><path class="cls-21" d="M2112.62,167.24a86.57,86.57,0,0,1,11.84,0l-6,7.6Z"/><polygon class="cls-21" points="2118.02 174.87 2113.16 179.15 2118.02 201.99 2122.89 179.15 2118.02 174.87"/><path class="cls-22" d="M2117.19,182.59h1.93a7.72,7.72,0,0,1,7.72,7.74v10.33a7.72,7.72,0,0,1-7.72,7.74h-1.93a7.72,7.72,0,0,1-7.72-7.74V190.33A7.72,7.72,0,0,1,2117.19,182.59Z"/></g><path class="cls-19" d="M2086.74,187.43c-.15-1,8.55-3.33,9.62-3.54.08,0-1.86-6.89-3.54-6.4-12.56,3.46-17.31,6.8-17.4,9.73C2079.19,184.71,2083,186.45,2086.74,187.43Z"/><path class="cls-19" d="M2107.36,193.35c-5.36.24-14.19-3.42-20.15-5.11-.3-.08-.44-.19-.45-.31-.62-2-4.38-3.09-6.55-3.33-1.58-.17-4.05.76-4.73,2.44-.61,6.85,24.73,13,35.5,12C2111.26,199.06,2112.72,193.12,2107.36,193.35Z"/><path class="cls-23" d="M2110.41,199.73c-2.15.36-.85-6,.49-5.45C2117.62,196.81,2116,198.8,2110.41,199.73Z"/><path class="cls-19" d="M2143.42,176.72c-1.72-.39-3.78,6.95-3.66,6.94,1.32-.23,7.82,1.63,9.51,2.84,3.57,0,7.15.06,10.72,1.56C2162.14,184.59,2158.5,180.62,2143.42,176.72Z"/><path class="cls-19" d="M2149.2,185.91c.52.46.5.79-.4.84-7.65.44-15.87,3.24-21.79,2.67s-4.13,5.48-3.92,5.5c7.83,1.63,31.94-.35,36.59-6.27,1.29-2.42-2.72-4.68-4.45-5.08S2148.5,180.79,2149.2,185.91Z"/><path class="cls-23" d="M2123.68,195.33c1.58.62,1.88-6.19.24-5.83C2115.67,191.54,2119.6,193.7,2123.68,195.33Z"/></g><g id="Layer_3-5" data-name="Layer 3"><g id="hoved-2-5" data-name="hoved-2"><path class="cls-15" d="M3117.8,175.81c.43-1.51,83.16-117.22,52.08-146.8-4.51-4.28-20.11-11.58-30.53-3.69-4.32,3.23-12.88,10.54-23.48,32.36,0,0-12.23-38.08-36.69-34.85C3079.18,22.83,3012.24,31.87,3117.8,175.81Z"/><polygon class="cls-16" points="3145.62 12.34 3132.31 38.93 3158.58 36.99 3145.62 12.34"/><polygon class="cls-16" points="3170.3 61.89 3183.94 35.46 3157.65 37.07 3170.3 61.89"/><ellipse class="cls-16" cx="3157.8" cy="36.8" rx="5.03" ry="5.05"/><polygon class="cls-16" points="3046.74 37.34 3063.48 61.91 3074.53 37.94 3046.74 37.34"/><polygon class="cls-16" points="3101.92 39.74 3085.5 14.96 3074.14 38.79 3101.92 39.74"/><ellipse class="cls-16" cx="3073.98" cy="38.53" rx="5.03" ry="5.05"/></g><path class="cls-19" d="M3136.16,202.23c5.79,21.33,43.62-18.43,33.9,65.94-.27,2.36-5.58-.65-6.87-1.09,9.39-88.39-34.42-27-34.18-68.12C3129,196.08,3135,198.08,3136.16,202.23Z"/><path d="M3162.67,266a17.53,17.53,0,0,1-1.16,9c11.17.65,21.89,4,33.16,4S3166.28,266.28,3162.67,266Z"/><path class="cls-19" d="M3127.71,222.49a4.19,4.19,0,0,0-.62-.89C3127.3,221.88,3127.51,222.18,3127.71,222.49Z"/><path class="cls-19" d="M3133.15,220.4c-8.21-13.49-26.12-2.68-29.05-16.7-.94-4.22-6.78-6.55-7-3.66-1.83,28.06,19.71,9.53,28.88,23C3127.11,219.51,3130.34,220.1,3133.15,220.4Z"/><path class="cls-19" d="M3133.15,220.4c-1.92-1.09-5.35-3.94-6.79-3.38-2-.12-2.23,3.88-.35,6l.08.11a4.56,4.56,0,0,1,.57.93c3.75,6.6,5,19.72.58,46,1.27.5,6.39,3.81,6.8,1.47C3139.2,242.14,3137.59,227.71,3133.15,220.4Z"/><path d="M3126.78,268.94a17.52,17.52,0,0,1-1.7,8.95c11.11,1.3,21.62,5.3,32.87,5.92S3130.37,269.42,3126.78,268.94Z"/><g id="krop-2-5" data-name="krop-2"><ellipse class="cls-20" cx="3117.02" cy="186.06" rx="29.47" ry="17.83"/><path class="cls-21" d="M3111.62,167.24a86.57,86.57,0,0,1,11.84,0l-6,7.6Z"/><polygon class="cls-21" points="3117.02 174.87 3112.16 179.15 3117.02 201.99 3121.89 179.15 3117.02 174.87"/><path class="cls-22" d="M3116.19,182.59h1.93a7.72,7.72,0,0,1,7.72,7.74v10.33a7.72,7.72,0,0,1-7.72,7.74h-1.93a7.72,7.72,0,0,1-7.72-7.74V190.33A7.72,7.72,0,0,1,3116.19,182.59Z"/></g><path class="cls-19" d="M3085.74,187.43c-.15-1,8.55-3.33,9.62-3.54.08,0-1.86-6.89-3.54-6.4-12.56,3.46-17.31,6.8-17.4,9.73C3078.19,184.71,3082,186.45,3085.74,187.43Z"/><path class="cls-19" d="M3106.36,193.35c-5.36.24-14.19-3.42-20.15-5.11-.3-.08-.44-.19-.45-.31-.62-2-4.38-3.09-6.55-3.33-1.58-.17-4.05.76-4.73,2.44-.61,6.85,24.73,13,35.5,12C3110.26,199.06,3111.72,193.12,3106.36,193.35Z"/><path class="cls-23" d="M3109.41,199.73c-2.15.36-.85-6,.49-5.45C3116.62,196.81,3115,198.8,3109.41,199.73Z"/><path class="cls-19" d="M3142.42,176.72c-1.72-.39-3.78,6.95-3.66,6.94,1.32-.23,7.82,1.63,9.51,2.84,3.57,0,7.15.06,10.72,1.56C3161.14,184.59,3157.5,180.62,3142.42,176.72Z"/><path class="cls-19" d="M3148.2,185.91c.52.46.5.79-.4.84-7.65.44-15.87,3.24-21.79,2.67s-4.13,5.48-3.92,5.5c7.83,1.63,31.94-.35,36.59-6.27,1.29-2.42-2.72-4.68-4.45-5.08S3147.5,180.79,3148.2,185.91Z"/><path class="cls-23" d="M3122.68,195.33c1.58.62,1.88-6.19.24-5.83C3114.67,191.54,3118.6,193.7,3122.68,195.33Z"/></g><g id="Layer_3-6" data-name="Layer 3"><g id="hoved-2-6" data-name="hoved-2"><path class="cls-15" d="M618.8,175.81C619.23,174.3,702,58.59,670.88,29c-4.51-4.28-20.11-11.58-30.53-3.69-4.32,3.23-12.88,10.54-23.48,32.36,0,0-12.23-38.08-36.69-34.85C580.18,22.83,513.24,31.87,618.8,175.81Z"/><polygon class="cls-16" points="646.62 12.34 633.31 38.93 659.58 36.99 646.62 12.34"/><polygon class="cls-16" points="671.3 61.89 684.94 35.46 658.65 37.07 671.3 61.89"/><ellipse class="cls-16" cx="658.8" cy="36.8" rx="5.03" ry="5.05"/><polygon class="cls-16" points="547.74 37.34 564.48 61.91 575.53 37.94 547.74 37.34"/><polygon class="cls-16" points="602.92 39.74 586.5 14.96 575.14 38.79 602.92 39.74"/><ellipse class="cls-16" cx="574.98" cy="38.53" rx="5.03" ry="5.05"/></g><g id="ben-2"><path class="cls-19" d="M637.16,202.23c5.79,21.33,43.62-18.43,33.9,65.94-.27,2.36-5.58-.65-6.87-1.09,9.39-88.39-34.42-27-34.18-68.12C630,196.08,636,198.08,637.16,202.23Z"/><path d="M663.67,266a17.53,17.53,0,0,1-1.16,9c11.17.65,21.89,4,33.16,4S667.28,266.28,663.67,266Z"/><path class="cls-19" d="M605,203.52c5.8,21.3,43.63-18.43,33.91,65.94-.27,2.36-5.58-.64-6.87-1.07,9.36-88.39-34.45-27-34.21-68.11C597.83,197.38,603.8,199.36,605,203.52Z"/><path d="M631.49,267.3a17.53,17.53,0,0,1-1.16,9c11.17.65,21.89,4,33.16,4S635.1,267.57,631.49,267.3Z"/></g><g id="krop-2-6" data-name="krop-2"><ellipse class="cls-20" cx="618.02" cy="186.06" rx="29.47" ry="17.83"/><path class="cls-21" d="M612.62,167.24a86.57,86.57,0,0,1,11.84,0l-6,7.6Z"/><polygon class="cls-21" points="618.02 174.87 613.16 179.15 618.02 201.99 622.89 179.15 618.02 174.87"/><path class="cls-22" d="M617.19,182.59h1.93a7.72,7.72,0,0,1,7.72,7.74v10.33a7.72,7.72,0,0,1-7.72,7.74h-1.93a7.72,7.72,0,0,1-7.72-7.74V190.33A7.72,7.72,0,0,1,617.19,182.59Z"/></g><path class="cls-19" d="M586.74,187.43c-.15-1,8.55-3.33,9.62-3.54.08,0-1.86-6.89-3.54-6.4-12.56,3.46-17.31,6.8-17.4,9.73C579.19,184.71,583,186.45,586.74,187.43Z"/><path class="cls-19" d="M607.88,189.66c-5.28.93-14.51-1.57-20.64-2.48-.31,0-.46-.13-.49-.25-.87-1.87-4.74-2.5-6.92-2.46-1.59,0-3.92,1.27-4.38,3,.27,6.87,26.19,9.66,36.75,7.38C612.48,194.82,613.16,188.74,607.88,189.66Z"/><path class="cls-23" d="M611.72,195.6c-2.08.63-1.61-5.83-.21-5.47C618.49,191.77,617.17,194,611.72,195.6Z"/><path class="cls-19" d="M643.42,176.72c-1.72-.39-3.78,6.95-3.66,6.94,1.32-.23,7.82,1.63,9.51,2.84,3.57,0,7.15.06,10.72,1.56C662.14,184.59,658.5,180.62,643.42,176.72Z"/><path class="cls-19" d="M649.25,186.74c.58.38.62.71-.26.9-7.49,1.64-15.16,5.69-21.1,6.06s-3.22,6.06-3,6.05c8,.38,31.48-5.37,35.15-11.95.88-2.6-3.43-4.2-5.2-4.32S647.76,181.8,649.25,186.74Z"/><path class="cls-23" d="M625.54,200.06c1.65.36.88-6.4-.69-5.79C617,197.58,621.25,199.09,625.54,200.06Z"/></g><g id="Layer_3-7" data-name="Layer 3"><g id="hoved-2-7" data-name="hoved-2"><path class="cls-15" d="M1618.8,175.81c.43-1.51,83.16-117.22,52.08-146.8-4.51-4.28-20.11-11.58-30.53-3.69-4.32,3.23-12.88,10.54-23.48,32.36,0,0-12.23-38.08-36.69-34.85C1580.18,22.83,1513.24,31.87,1618.8,175.81Z"/><polygon class="cls-16" points="1646.62 12.34 1633.31 38.93 1659.58 36.99 1646.62 12.34"/><polygon class="cls-16" points="1671.3 61.89 1684.94 35.46 1658.65 37.07 1671.3 61.89"/><ellipse class="cls-16" cx="1658.8" cy="36.8" rx="5.03" ry="5.05"/><polygon class="cls-16" points="1547.74 37.34 1564.48 61.91 1575.53 37.94 1547.74 37.34"/><polygon class="cls-16" points="1602.92 39.74 1586.5 14.96 1575.14 38.79 1602.92 39.74"/><ellipse class="cls-16" cx="1574.98" cy="38.53" rx="5.03" ry="5.05"/></g><g id="ben-2-2" data-name="ben-2"><path class="cls-19" d="M1637.16,202.23c5.79,21.33,43.62-18.43,33.9,65.94-.27,2.36-5.58-.65-6.87-1.09,9.39-88.39-34.42-27-34.18-68.12C1630,196.08,1636,198.08,1637.16,202.23Z"/><path d="M1663.67,266a17.53,17.53,0,0,1-1.16,9c11.17.65,21.89,4,33.16,4S1667.28,266.28,1663.67,266Z"/><path class="cls-19" d="M1605,203.52c5.8,21.3,43.63-18.43,33.91,65.94-.27,2.36-5.58-.64-6.87-1.07,9.36-88.39-34.45-27-34.21-68.11C1597.83,197.38,1603.8,199.36,1605,203.52Z"/><path d="M1631.49,267.3a17.53,17.53,0,0,1-1.16,9c11.17.65,21.89,4,33.16,4S1635.1,267.57,1631.49,267.3Z"/></g><g id="krop-2-7" data-name="krop-2"><ellipse class="cls-20" cx="1618.02" cy="186.06" rx="29.47" ry="17.83"/><path class="cls-21" d="M1612.62,167.24a86.57,86.57,0,0,1,11.84,0l-6,7.6Z"/><polygon class="cls-21" points="1618.02 174.87 1613.16 179.15 1618.02 201.99 1622.89 179.15 1618.02 174.87"/><path class="cls-22" d="M1617.19,182.59h1.93a7.72,7.72,0,0,1,7.72,7.74v10.33a7.72,7.72,0,0,1-7.72,7.74h-1.93a7.72,7.72,0,0,1-7.72-7.74V190.33A7.72,7.72,0,0,1,1617.19,182.59Z"/></g><path class="cls-19" d="M1586.74,187.43c-.15-1,8.55-3.33,9.62-3.54.08,0-1.86-6.89-3.54-6.4-12.56,3.46-17.31,6.8-17.4,9.73C1579.19,184.71,1583,186.45,1586.74,187.43Z"/><path class="cls-19" d="M1607.88,189.66c-5.28.93-14.51-1.57-20.64-2.48-.31,0-.46-.13-.49-.25-.87-1.87-4.74-2.5-6.92-2.46-1.59,0-3.92,1.27-4.38,3,.27,6.87,26.19,9.66,36.75,7.38C1612.48,194.82,1613.16,188.74,1607.88,189.66Z"/><path class="cls-23" d="M1611.72,195.6c-2.08.63-1.61-5.83-.21-5.47C1618.49,191.77,1617.17,194,1611.72,195.6Z"/><path class="cls-19" d="M1643.42,176.72c-1.72-.39-3.78,6.95-3.66,6.94,1.32-.23,7.82,1.63,9.51,2.84,3.57,0,7.15.06,10.72,1.56C1662.14,184.59,1658.5,180.62,1643.42,176.72Z"/><path class="cls-19" d="M1649.25,186.74c.58.38.62.71-.26.9-7.49,1.64-15.16,5.69-21.1,6.06s-3.22,6.06-3,6.05c8,.38,31.48-5.37,35.15-11.95.88-2.6-3.43-4.2-5.2-4.32S1647.76,181.8,1649.25,186.74Z"/><path class="cls-23" d="M1625.54,200.06c1.65.36.88-6.4-.69-5.79C1617,197.58,1621.25,199.09,1625.54,200.06Z"/></g><g id="Layer_3-8" data-name="Layer 3"><g id="hoved-2-8" data-name="hoved-2"><path class="cls-15" d="M2618.8,175.81c.43-1.51,83.16-117.22,52.08-146.8-4.51-4.28-20.11-11.58-30.53-3.69-4.32,3.23-12.88,10.54-23.48,32.36,0,0-12.23-38.08-36.69-34.85C2580.18,22.83,2513.24,31.87,2618.8,175.81Z"/><polygon class="cls-16" points="2646.62 12.34 2633.31 38.93 2659.58 36.99 2646.62 12.34"/><polygon class="cls-16" points="2671.3 61.89 2684.94 35.46 2658.65 37.07 2671.3 61.89"/><ellipse class="cls-16" cx="2658.8" cy="36.8" rx="5.03" ry="5.05"/><polygon class="cls-16" points="2547.74 37.34 2564.48 61.91 2575.53 37.94 2547.74 37.34"/><polygon class="cls-16" points="2602.92 39.74 2586.5 14.96 2575.14 38.79 2602.92 39.74"/><ellipse class="cls-16" cx="2574.98" cy="38.53" rx="5.03" ry="5.05"/></g><g id="ansigt-2-3" data-name="ansigt-2"><ellipse class="cls-17" cx="2599.97" cy="83.02" rx="19.79" ry="19.85"/><ellipse class="cls-17" cx="2646.96" cy="83.02" rx="19.79" ry="19.85"/><ellipse cx="2601.9" cy="89.47" rx="11.8" ry="11.83"/><ellipse cx="2642.45" cy="88.83" rx="11.8" ry="11.83"/><line class="cls-18" x1="2589.19" y1="104.16" x2="2602.06" y2="106.1"/><line class="cls-18" x1="2590.48" y1="105.45" x2="2598.2" y2="106.74"/><line class="cls-18" x1="2643.25" y1="106.1" x2="2658.06" y2="103.51"/><line class="cls-18" x1="2645.19" y1="107.39" x2="2656.77" y2="104.81"/><path class="cls-12" d="M2637.7,134.17h-24.47s-9.65,1.94-5.14,8.4"/></g><g id="ben-2-3" data-name="ben-2"><path class="cls-19" d="M2637.16,202.23c5.79,21.33,43.62-18.43,33.9,65.94-.27,2.36-5.58-.65-6.87-1.09,9.39-88.39-34.42-27-34.18-68.12C2630,196.08,2636,198.08,2637.16,202.23Z"/><path d="M2663.67,266a17.53,17.53,0,0,1-1.16,9c11.17.65,21.89,4,33.16,4S2667.28,266.28,2663.67,266Z"/><path class="cls-19" d="M2605,203.52c5.8,21.3,43.63-18.43,33.91,65.94-.27,2.36-5.58-.64-6.87-1.07,9.36-88.39-34.45-27-34.21-68.11C2597.83,197.38,2603.8,199.36,2605,203.52Z"/><path d="M2631.49,267.3a17.53,17.53,0,0,1-1.16,9c11.17.65,21.89,4,33.16,4S2635.1,267.57,2631.49,267.3Z"/></g><g id="krop-2-8" data-name="krop-2"><ellipse class="cls-20" cx="2618.02" cy="186.06" rx="29.47" ry="17.83"/><path class="cls-21" d="M2612.62,167.24a86.57,86.57,0,0,1,11.84,0l-6,7.6Z"/><polygon class="cls-21" points="2618.02 174.87 2613.16 179.15 2618.02 201.99 2622.89 179.15 2618.02 174.87"/><path class="cls-22" d="M2617.19,182.59h1.93a7.72,7.72,0,0,1,7.72,7.74v10.33a7.72,7.72,0,0,1-7.72,7.74h-1.93a7.72,7.72,0,0,1-7.72-7.74V190.33A7.72,7.72,0,0,1,2617.19,182.59Z"/></g><path class="cls-19" d="M2586.74,187.43c-.15-1,8.55-3.33,9.62-3.54.08,0-1.86-6.89-3.54-6.4-12.56,3.46-17.31,6.8-17.4,9.73C2579.19,184.71,2583,186.45,2586.74,187.43Z"/><path class="cls-19" d="M2607.88,189.66c-5.28.93-14.51-1.57-20.64-2.48-.31,0-.46-.13-.49-.25-.87-1.87-4.74-2.5-6.92-2.46-1.59,0-3.92,1.27-4.38,3,.27,6.87,26.19,9.66,36.75,7.38C2612.48,194.82,2613.16,188.74,2607.88,189.66Z"/><path class="cls-23" d="M2611.72,195.6c-2.08.63-1.61-5.83-.21-5.47C2618.49,191.77,2617.17,194,2611.72,195.6Z"/><path class="cls-19" d="M2643.42,176.72c-1.72-.39-3.78,6.95-3.66,6.94,1.32-.23,7.82,1.63,9.51,2.84,3.57,0,7.15.06,10.72,1.56C2662.14,184.59,2658.5,180.62,2643.42,176.72Z"/><path class="cls-19" d="M2649.25,186.74c.58.38.62.71-.26.9-7.49,1.64-15.16,5.69-21.1,6.06s-3.22,6.06-3,6.05c8,.38,31.48-5.37,35.15-11.95.88-2.6-3.43-4.2-5.2-4.32S2647.76,181.8,2649.25,186.74Z"/><path class="cls-23" d="M2625.54,200.06c1.65.36.88-6.4-.69-5.79C2617,197.58,2621.25,199.09,2625.54,200.06Z"/></g><g id="Layer_3-9" data-name="Layer 3"><g id="hoved-2-9" data-name="hoved-2"><path class="cls-15" d="M3617.8,174.81c.43-1.51,83.16-117.22,52.08-146.8-4.51-4.28-20.11-11.58-30.53-3.69-4.32,3.23-12.88,10.54-23.48,32.36,0,0-12.23-38.08-36.69-34.85C3579.18,21.83,3512.24,30.87,3617.8,174.81Z"/><polygon class="cls-16" points="3645.62 11.34 3632.31 37.93 3658.58 35.99 3645.62 11.34"/><polygon class="cls-16" points="3670.3 60.89 3683.94 34.46 3657.65 36.07 3670.3 60.89"/><ellipse class="cls-16" cx="3657.8" cy="35.8" rx="5.03" ry="5.05"/><polygon class="cls-16" points="3546.74 36.34 3563.48 60.91 3574.53 36.94 3546.74 36.34"/><polygon class="cls-16" points="3601.92 38.74 3585.5 13.96 3574.14 37.79 3601.92 38.74"/><ellipse class="cls-16" cx="3573.98" cy="37.53" rx="5.03" ry="5.05"/></g><g id="ansigt-2-4" data-name="ansigt-2"><ellipse class="cls-17" cx="3598.97" cy="82.02" rx="19.79" ry="19.85"/><ellipse class="cls-17" cx="3645.96" cy="82.02" rx="19.79" ry="19.85"/><ellipse cx="3600.9" cy="88.47" rx="11.8" ry="11.83"/><ellipse cx="3641.45" cy="87.83" rx="11.8" ry="11.83"/><line class="cls-18" x1="3588.19" y1="103.16" x2="3601.06" y2="105.1"/><line class="cls-18" x1="3589.48" y1="104.45" x2="3597.2" y2="105.74"/><line class="cls-18" x1="3642.25" y1="105.1" x2="3657.06" y2="102.51"/><line class="cls-18" x1="3644.19" y1="106.39" x2="3655.77" y2="103.81"/><path class="cls-12" d="M3636.7,133.17h-24.47s-9.65,1.94-5.14,8.4"/></g><g id="ben-2-4" data-name="ben-2"><path class="cls-19" d="M3636.16,201.23c5.79,21.33,43.62-18.43,33.9,65.94-.27,2.36-5.58-.65-6.87-1.09,9.39-88.39-34.42-27-34.18-68.12C3629,195.08,3635,197.08,3636.16,201.23Z"/><path d="M3662.67,265a17.53,17.53,0,0,1-1.16,9c11.17.65,21.89,4,33.16,4S3666.28,265.28,3662.67,265Z"/><path class="cls-19" d="M3604,202.52c5.8,21.3,43.63-18.43,33.91,65.94-.27,2.36-5.58-.64-6.87-1.07,9.36-88.39-34.45-27-34.21-68.11C3596.83,196.38,3602.8,198.36,3604,202.52Z"/><path d="M3630.49,266.3a17.53,17.53,0,0,1-1.16,9c11.17.65,21.89,4,33.16,4S3634.1,266.57,3630.49,266.3Z"/></g><g id="krop-2-9" data-name="krop-2"><ellipse class="cls-20" cx="3617.02" cy="185.06" rx="29.47" ry="17.83"/><path class="cls-21" d="M3611.62,166.24a86.57,86.57,0,0,1,11.84,0l-6,7.6Z"/><polygon class="cls-21" points="3617.02 173.87 3612.16 178.15 3617.02 200.99 3621.89 178.15 3617.02 173.87"/><path class="cls-22" d="M3616.19,181.59h1.93a7.72,7.72,0,0,1,7.72,7.74v10.33a7.72,7.72,0,0,1-7.72,7.74h-1.93a7.72,7.72,0,0,1-7.72-7.74V189.33A7.72,7.72,0,0,1,3616.19,181.59Z"/></g><path class="cls-19" d="M3585.74,186.43c-.15-1,8.55-3.33,9.62-3.54.08,0-1.86-6.89-3.54-6.4-12.56,3.46-17.31,6.8-17.4,9.73C3578.19,183.71,3582,185.45,3585.74,186.43Z"/><path class="cls-19" d="M3606.88,188.66c-5.28.93-14.51-1.57-20.64-2.48-.31,0-.46-.13-.49-.25-.87-1.87-4.74-2.5-6.92-2.46-1.59,0-3.92,1.27-4.38,3,.27,6.87,26.19,9.66,36.75,7.38C3611.48,193.82,3612.16,187.74,3606.88,188.66Z"/><path class="cls-23" d="M3610.72,194.6c-2.08.63-1.61-5.83-.21-5.47C3617.49,190.77,3616.17,193,3610.72,194.6Z"/><path class="cls-19" d="M3642.42,175.72c-1.72-.39-3.78,6.95-3.66,6.94,1.32-.23,7.82,1.63,9.51,2.84,3.57,0,7.15.06,10.72,1.56C3661.14,183.59,3657.5,179.62,3642.42,175.72Z"/><path class="cls-19" d="M3648.25,185.74c.58.38.62.71-.26.9-7.49,1.64-15.16,5.69-21.1,6.06s-3.22,6.06-3,6.05c8,.38,31.48-5.37,35.15-11.95.88-2.6-3.43-4.2-5.2-4.32S3646.76,180.8,3648.25,185.74Z"/><path class="cls-23" d="M3624.54,199.06c1.65.36.88-6.4-.69-5.79C3616,196.58,3620.25,198.09,3624.54,199.06Z"/></g></g><g id="Layer_5" data-name="Layer 5"><g id="ansigt-9"><line class="cls-18" x1="585" y1="104.19" x2="597.71" y2="106.22"/><line class="cls-18" x1="586.27" y1="105.54" x2="593.9" y2="106.9"/><line class="cls-18" x1="638.38" y1="106.22" x2="653" y2="103.51"/><line class="cls-18" x1="640.29" y1="107.57" x2="651.73" y2="104.87"/><path id="frustreret" class="cls-12" d="M601.84,137.67s3.18-8.12,7,0c0,0,1.27,6.09,5.08,0,0,0,3.81-6.77,4.45-.68,0,0,4.45,10.15,7,0,0,0,1.9-7.45,5.72.68,0,0,1.9,6.09,4.44,0"/><line class="cls-12" x1="585" y1="72.4" x2="605.97" y2="87.28"/><line class="cls-12" x1="605.97" y1="87.28" x2="585" y2="98.1"/><line class="cls-12" x1="650.46" y1="71.05" x2="629.49" y2="85.93"/><line class="cls-12" x1="629.49" y1="85.93" x2="650.46" y2="96.75"/></g><g id="ansigt-10"><ellipse class="cls-17" cx="1599.54" cy="83.88" rx="19.7" ry="20.46"/><ellipse class="cls-17" cx="1646.3" cy="83.88" rx="19.7" ry="20.46"/><ellipse cx="1601.46" cy="90.53" rx="11.75" ry="12.2"/><ellipse cx="1641.82" cy="89.87" rx="11.75" ry="12.2"/><g id="main"><path d="M1620.51,141.79c-9.09-1.27-15.74,2.37-22.38-3.14-7.46-6.2,17.26-10,21.88-7,4.78-1.9,19.22-1.13,21.28,3.26C1644.56,141.88,1621.6,142,1620.51,141.79Z"/><path class="cls-24" d="M1619.87,142.09c4.26-9.23,13-6.42,20.41-3.33C1634.29,143.48,1626.92,142.59,1619.87,142.09Z"/></g><line class="cls-18" x1="1588.81" y1="105.67" x2="1601.61" y2="107.67"/><line class="cls-18" x1="1590.09" y1="107" x2="1597.77" y2="108.33"/><line class="cls-18" x1="1642.61" y1="107.67" x2="1657.35" y2="105"/><line class="cls-18" x1="1644.54" y1="109" x2="1656.07" y2="106.34"/><line class="cls-25" x1="1585.09" y1="53.5" x2="1613.66" y2="68.03"/><line class="cls-25" x1="1660.43" y1="53.5" x2="1631.85" y2="68.03"/></g><g id="ansigt-10-2" data-name="ansigt-10"><ellipse class="cls-17" cx="2099.54" cy="82.88" rx="19.7" ry="20.46"/><ellipse class="cls-17" cx="2146.3" cy="82.88" rx="19.7" ry="20.46"/><ellipse cx="2101.46" cy="89.53" rx="11.75" ry="12.2"/><ellipse cx="2141.82" cy="88.87" rx="11.75" ry="12.2"/><g id="main-2" data-name="main"><path d="M2120.51,140.79c-9.09-1.27-15.74,2.37-22.38-3.14-7.46-6.2,17.26-10,21.88-7,4.78-1.9,19.22-1.13,21.28,3.26C2144.56,140.88,2121.6,141,2120.51,140.79Z"/><path class="cls-24" d="M2119.87,141.09c4.26-9.23,13-6.42,20.41-3.33C2134.29,142.48,2126.92,141.59,2119.87,141.09Z"/></g><line class="cls-18" x1="2088.81" y1="104.67" x2="2101.61" y2="106.67"/><line class="cls-18" x1="2090.09" y1="106" x2="2097.77" y2="107.33"/><line class="cls-18" x1="2142.61" y1="106.67" x2="2157.35" y2="104"/><line class="cls-18" x1="2144.54" y1="108" x2="2156.07" y2="105.34"/><line class="cls-25" x1="2085.09" y1="52.5" x2="2113.66" y2="67.03"/><line class="cls-25" x1="2160.43" y1="52.5" x2="2131.85" y2="67.03"/></g><g id="ansigt-12"><circle class="cls-17" cx="3096.15" cy="83.28" r="20.41"/><circle class="cls-17" cx="3144.59" cy="83.28" r="20.41"/><circle cx="3096.15" cy="83.94" r="12.17"/><circle cx="3145.25" cy="83.94" r="12.17"/><line class="cls-18" x1="3085.03" y1="105.01" x2="3098.3" y2="107"/><line class="cls-18" x1="3086.36" y1="106.34" x2="3094.32" y2="107.67"/><line class="cls-18" x1="3140.77" y1="107" x2="3156.04" y2="104.34"/><line class="cls-18" x1="3142.77" y1="108.33" x2="3154.71" y2="105.68"/><path class="cls-12" d="M3135.05,135.87h-25.23s-10,2-5.31,8.63"/></g><g id="ansigt-11"><circle class="cls-17" cx="3598.79" cy="81.91" r="19.87"/><circle class="cls-17" cx="3645.94" cy="81.91" r="19.87"/><circle cx="3600.73" cy="88.37" r="11.84"/><circle cx="3641.42" cy="87.72" r="11.84"/><g id="Layer_7-2" data-name="Layer 7-2"><path class="cls-26" d="M3585.71,96.93h25.84S3601.21,109.2,3585.71,96.93Z"/><path class="cls-26" d="M3659.35,96.93h-26.49S3643.46,109.2,3659.35,96.93Z"/></g><line class="cls-18" x1="3587.97" y1="103.06" x2="3600.89" y2="105"/><line class="cls-18" x1="3589.26" y1="104.36" x2="3597.01" y2="105.65"/><line class="cls-18" x1="3642.23" y1="105" x2="3657.09" y2="102.41"/><line class="cls-18" x1="3644.17" y1="106.29" x2="3655.79" y2="103.71"/><path class="cls-12" d="M3636.66,133.1H3612.1s-9.68,1.94-5.16,8.4"/></g><polyline class="cls-12" points="1384.17 51.46 1365.08 63.55 1384.17 72.46"/><polyline class="cls-12" points="1318 51.46 1340.27 64.19 1318 72.46"/><path id="mund" class="cls-12" d="M1326.27,89.64s1-10.7,5.73-1.28c1.27,2.55,4.45,2.55,6.36-2.54s3.82,1.27,3.82,1.27,2.54,5.09,4.45,0,4.45-.63,4.45-.63,3.52,6.32,6.37.63c.63-1.27,1.27-4.45,3.81-1.91s2.32,5.75,5.73,1.91c5.09-5.72,7.64,1.91,7.64,1.91s3.18.64,3.81-3.82"/><ellipse class="cls-10" cx="2327.8" cy="62.67" rx="10.12" ry="10.25"/><ellipse class="cls-13" cx="2327.8" cy="59.36" rx="5.83" ry="5.12"/><ellipse class="cls-10" cx="2376.88" cy="62.67" rx="10.12" ry="10.25"/><ellipse class="cls-11" cx="2376.88" cy="59.66" rx="6.44" ry="6.03"/><ellipse cx="2351.73" cy="85.88" rx="2.45" ry="3.62"/><ellipse class="cls-10" cx="2827.8" cy="61.67" rx="10.12" ry="10.25"/><ellipse class="cls-13" cx="2827.8" cy="58.36" rx="5.83" ry="5.12"/><ellipse class="cls-10" cx="2876.88" cy="61.67" rx="10.12" ry="10.25"/><ellipse class="cls-11" cx="2876.88" cy="58.66" rx="6.44" ry="6.03"/><ellipse cx="2851.73" cy="84.88" rx="2.45" ry="3.62"/><path id="mund-2" data-name="mund" class="cls-12" d="M3326.77,91.11s1-10.54,5.5-1.26c1.22,2.51,4.27,2.51,6.1-2.5S3342,88.6,3342,88.6s2.44,5,4.27,0,4.27-.63,4.27-.63,3.38,6.24,6.11.63c.61-1.25,1.22-4.39,3.66-1.88s2.23,5.66,5.5,1.88c4.88-5.64,7.33,1.88,7.33,1.88s3.05.63,3.66-3.76"/><ellipse class="cls-10" cx="3327.08" cy="61.64" rx="10.08" ry="10.66"/><ellipse class="cls-13" cx="3329.52" cy="65.09" rx="5.8" ry="5.33"/><path id="tår_v" data-name="tår v" class="cls-27" d="M3320.69,70.11h12.77S3327.74,75.53,3320.69,70.11Z"/><ellipse class="cls-10" cx="3375.92" cy="61.64" rx="10.08" ry="10.66"/><ellipse class="cls-11" cx="3374.7" cy="64.78" rx="6.41" ry="6.27"/><path id="tår_h" data-name="tår h" class="cls-27" d="M3369.54,70.11h12.77S3376.59,75.53,3369.54,70.11Z"/><path id="mund-3" data-name="mund" class="cls-12" d="M3826.77,90.11s1-10.54,5.5-1.26c1.22,2.51,4.27,2.51,6.1-2.5S3842,87.6,3842,87.6s2.44,5,4.27,0,4.27-.63,4.27-.63,3.38,6.24,6.11.63c.61-1.25,1.22-4.39,3.66-1.88s2.23,5.66,5.5,1.88c4.88-5.64,7.33,1.88,7.33,1.88s3.05.63,3.66-3.76"/><ellipse class="cls-10" cx="3827.08" cy="60.64" rx="10.08" ry="10.66"/><ellipse class="cls-13" cx="3829.52" cy="64.09" rx="5.8" ry="5.33"/><path id="tår_v-2" data-name="tår v" class="cls-27" d="M3820.69,69.11h12.77S3827.74,74.53,3820.69,69.11Z"/><ellipse class="cls-10" cx="3875.92" cy="60.64" rx="10.08" ry="10.66"/><ellipse class="cls-11" cx="3874.7" cy="63.78" rx="6.41" ry="6.27"/><path id="tår_h-2" data-name="tår h" class="cls-27" d="M3869.54,69.11h12.77S3876.59,74.53,3869.54,69.11Z"/></g></svg>
